<svg width="98" height="156" viewBox="0 0 98 156" fill="none" xmlns="http://www.w3.org/2000/svg">
<path d="M10.0901 7.62C11.6701 5.49 14.4301 2.9 16.2301 1.88C18.0301 0.850005 19.8401 0.01 20.2501 0C20.6601 0 24.7101 1.78998 29.2501 3.97998C33.7901 6.16998 39.1901 9.31998 41.2501 10.98C43.3101 12.64 45.0001 14.67 45.0001 15.5C45.0001 16.62 43.8101 17 40.2501 17C37.6401 17 30.7801 18.16 25.0001 19.59C18.7401 21.13 13.1901 23.14 11.2501 24.59C9.46011 25.91 7.9901 27.79 7.9801 28.75C7.9701 29.71 9.4601 32.3 11.3101 34.5C13.1501 36.7 15.9701 39.1 17.5801 39.83C19.3601 40.64 22.8501 41.0199 26.5001 40.7899C30.6001 40.5299 34.7201 39.37 39.5001 37.13C43.3501 35.32 48.6401 32.3 51.2501 30.42C53.8601 28.54 56.6801 27.23 57.5001 27.5C58.6601 27.89 58.9401 29.44 58.7501 34.41C58.5401 39.69 57.9701 41.55 55.5001 45.02C53.4801 47.86 49.5601 50.9899 43.5001 54.5999C38.5501 57.5599 32.0501 61.67 29.0401 63.74C26.0401 65.81 21.1601 69.75 18.1801 72.5C15.1701 75.28 11.5601 79.94 10.0301 83C8.52011 86.02 7.02011 90.3 6.69011 92.5C6.28011 95.24 6.7401 98.39 8.1501 102.5C9.2701 105.8 12.0701 111.35 14.3501 114.83C17.5101 119.66 20.2801 122.35 26.0001 126.15C30.1301 128.89 36.4301 132.02 40.0001 133.09C43.7301 134.21 49.3801 135.03 53.2501 135.02C56.9601 135.01 62.1401 134.56 64.7501 134.02C67.3601 133.48 73.7801 132.19 79.0001 131.15C84.2301 130.12 90.2101 128.42 92.2901 127.38C95.3101 125.88 96.3301 125.75 97.2901 126.75C98.2401 127.73 97.4401 128.97 93.5001 132.64C90.7501 135.19 86.0301 139.36 83.0001 141.91C79.9801 144.45 75.0301 147.96 72.0001 149.71C68.9801 151.45 63.8001 153.58 60.5001 154.44C57.2001 155.31 51.1301 156 47.0001 155.99C42.8801 155.98 37.0301 155.4 34.0001 154.7C30.9801 154 26.2501 152.12 23.5001 150.52C20.7501 148.92 16.3301 145.57 13.6801 143.06C11.0201 140.55 7.5901 136.25 6.0401 133.5C4.4901 130.75 2.4901 126.02 1.5901 123C0.330104 118.79 0.0101073 114.34 0.250107 104C0.460107 94.84 1.14011 88.41 2.38011 84C3.38011 80.42 5.49011 74.8 7.07011 71.5C8.65011 68.2 9.95011 64.49 9.97011 63.25C9.99011 62.01 8.46011 59.31 6.58011 57.25C4.69011 55.19 2.44011 51.81 1.58011 49.75C0.600109 47.43 0.000107311 43.04 0.000107311 38.25C-0.00989269 33.82 0.680108 28.36 1.61011 25.5C2.50011 22.75 4.13011 18.48 5.22011 16C6.32011 13.52 8.5101 9.76 10.0901 7.62Z" fill="#030203"/>
</svg>
