<svg width="30" height="191" viewBox="0 0 30 191" fill="none" xmlns="http://www.w3.org/2000/svg">
<path d="M2.00011 18.25C3.09011 13.71 5.12011 7.75 6.50011 5C7.89011 2.25 9.69011 0 10.5001 0C11.3201 0 12.1901 1.01 12.4501 2.25C12.7001 3.49 14.0302 10.58 15.4202 18C16.8002 25.42 19.9701 37.58 22.4601 45C24.9601 52.42 26.9801 59.17 26.9701 60C26.9601 60.83 26.1 62.4 25.06 63.5C23.21 65.46 23.22 65.8 25.56 81C26.87 89.53 28.3501 102.57 28.8501 110C29.3601 117.58 29.4 131.18 28.94 141C28.49 150.62 27.3801 162.1 26.4701 166.5C25.5701 170.9 23.9601 177.09 22.9101 180.25C21.8501 183.41 20.3201 187.12 19.4901 188.5C18.6601 189.87 17.3201 191 16.4901 191C15.1801 191 15.0701 187.75 15.6201 165.25C16.0501 147.88 15.87 135.92 15.06 128.5C14.4 122.45 12.8001 111.88 11.5001 105C10.2001 98.13 7.77009 85.97 6.11009 78C4.44009 70.03 2.38014 57.76 1.53014 50.75C0.680137 43.74 -0.00989266 35.41 0.000107336 32.25C0.000107336 29.09 0.900107 22.79 2.00011 18.25Z" fill="#030203"/>
</svg>
