<svg width="172" height="141" viewBox="0 0 172 141" fill="none" xmlns="http://www.w3.org/2000/svg">
<path d="M145.862 13C146.662 9.97 148.062 5.81 148.972 3.75C150.032 1.33 151.292 0 152.502 0C153.532 0 157.262 2.81 160.792 6.25C164.482 9.85 168.182 14.62 169.512 17.5C171.472 21.73 171.802 23.96 171.662 32C171.572 37.22 170.972 43.75 170.322 46.5C169.672 49.25 167.872 54.2 166.322 57.5C164.762 60.8 161.772 65.26 159.682 67.41C157.592 69.56 153.412 72.9 150.382 74.84C147.352 76.78 142.072 79.63 138.632 81.18C135.192 82.73 128.892 85.15 124.632 86.55C120.372 87.95 110.802 90.38 103.382 91.96C95.9616 93.54 85.1616 95.51 79.3816 96.33C73.6016 97.16 64.8316 98.13 59.8816 98.48C54.8016 98.85 47.1716 98.65 42.3816 98.02C37.7116 97.41 31.6316 96.19 28.8816 95.32C26.1316 94.44 21.2916 92.43 18.1316 90.86C14.9716 89.29 10.7516 86.54 8.75163 84.75C6.76163 82.96 3.95163 79.47 2.50163 77C0.131627 72.93 -0.108344 71.59 0.0316561 63C0.131656 56.93 0.961573 50.61 2.32157 45.5C3.49157 41.1 5.58161 35.03 6.98161 32C8.37161 28.97 10.2717 25.67 11.1917 24.65C12.1217 23.63 14.1216 22.16 15.6316 21.4C17.8216 20.28 18.5816 20.25 19.3816 21.25C20.1016 22.14 19.5017 23.65 17.2817 26.5C15.5817 28.7 13.1017 32.64 11.7817 35.25C10.4617 37.86 9.38163 40.9 9.38163 42C9.38163 43.1 10.0116 45.24 10.7716 46.75C11.5416 48.26 14.6916 51.86 17.7716 54.75C20.8616 57.64 25.9716 61.16 29.1316 62.59C32.7516 64.21 38.2216 65.56 43.8816 66.2C48.8316 66.77 59.6316 66.97 67.8816 66.66C76.1316 66.35 87.8316 65.38 93.8816 64.5C99.9316 63.63 108.262 62.19 112.382 61.32C116.512 60.45 124.832 57.96 130.882 55.79C136.932 53.62 145.262 50.19 149.382 48.17C153.512 46.15 156.992 43.82 157.122 43C157.252 42.18 154.422 38.35 150.832 34.5C144.762 27.99 144.312 27.19 144.352 23C144.382 20.53 145.062 16.03 145.862 13Z" fill="#030203"/>
<path d="M88.3216 115C89.5816 110.2 91.0616 106.87 92.4516 105.75C93.6516 104.79 95.0216 104 95.5016 104C95.9916 104 98.8516 104.9 101.882 106C105.262 107.23 107.822 108.87 108.522 110.25C109.192 111.57 109.442 114.77 109.132 118C108.832 121.02 107.612 126.43 106.412 130C105.212 133.57 103.592 137.51 102.812 138.75C101.502 140.82 101.202 140.88 99.1316 139.53C97.8916 138.71 94.5216 136.69 91.6316 135.03C86.4616 132.05 86.3816 131.93 86.3716 127.25C86.3716 124.64 87.2416 119.12 88.3216 115Z" fill="#030203"/>
</svg>
