<svg width="88" height="121" viewBox="0 0 88 121" fill="none" xmlns="http://www.w3.org/2000/svg">
<path d="M24.6847 16.5C25.8147 12.1 27.6147 6.59 28.6647 4.25C29.7147 1.91 31.2647 0 32.1247 0C32.9647 0 35.5747 1.56999 37.9147 3.48999C40.2547 5.41999 44.2746 8.67999 46.8546 10.74C49.4346 12.81 54.6146 17.01 58.3546 20.08C62.1046 23.16 68.6846 29.46 72.9846 34.08C77.4247 38.87 82.0747 45.09 83.7647 48.5C85.4047 51.82 86.9847 56.95 87.3047 60C87.6147 63.02 87.3347 68.2 86.6647 71.5C86.0047 74.8 85.1047 79.52 84.6747 82C84.2447 84.48 82.5746 89.42 80.9846 93C79.3847 96.57 76.2447 101.52 74.0047 104C71.7647 106.48 67.2847 109.92 64.0447 111.65C60.8147 113.38 55.6947 115.48 52.6647 116.32C49.6347 117.17 45.3647 118.37 43.1647 119C40.9647 119.63 33.9947 120.36 27.6647 120.62C18.7447 120.99 14.4948 120.7 1.22476 117.5L0.414704 113C-0.0352963 110.52 -0.135267 106.48 0.194733 104C0.524733 101.52 1.5247 97.02 2.4147 94C3.3147 90.98 4.74465 87.67 5.60465 86.66C6.87465 85.17 8.0147 84.94 11.6647 85.46C14.1347 85.82 21.7947 86.34 28.6647 86.63C37.9047 87.02 43.3847 86.74 49.6647 85.54C54.3347 84.64 61.0847 82.9 64.6647 81.67C70.0647 79.81 71.2147 79.01 71.4846 76.96C71.7246 75.17 70.5046 73.04 66.9846 69.11C64.3346 66.15 59.2447 61.43 55.6647 58.63C52.0847 55.82 47.3647 51.88 45.1647 49.87C42.9647 47.85 38.9147 44.44 36.1647 42.29C33.4147 40.13 29.4747 36.37 27.4047 33.94C25.3447 31.5 23.4147 28.37 23.1347 27C22.8447 25.62 23.5447 20.9 24.6847 16.5Z" fill="#030203"/>
</svg>
