<svg width="166" height="149" viewBox="0 0 166 149" fill="none" xmlns="http://www.w3.org/2000/svg">
<path fill-rule="evenodd" clip-rule="evenodd" d="M139.223 25.56C135.093 27 128.583 30.28 124.743 32.84C120.893 35.4 114.213 40.87 109.883 45C105.553 49.12 100.143 55.3299 97.8631 58.7899C95.5831 62.2399 93.2731 65.2499 92.7231 65.4699C92.1731 65.6899 87.8931 64.25 83.2231 62.28C78.5431 60.31 73.443 58.6499 71.883 58.5999C69.373 58.5099 68.8031 59.09 67.0431 63.5C65.5531 67.22 65.1331 70.16 65.4131 75C65.7231 80.24 66.7031 83.39 70.5031 91.25C73.1031 96.61 75.213 102.24 75.203 103.75C75.183 105.73 73.783 107.83 70.203 111.25C67.343 113.98 62.0331 117.49 57.7231 119.5C53.5931 121.42 47.8631 123.45 44.9731 124.01C42.0831 124.57 37.0231 125.03 33.7231 125.03C30.4231 125.04 24.7931 124.15 21.2231 123.06C16.6131 121.66 13.623 119.98 10.943 117.29C8.30303 114.64 6.98309 112.3 6.56309 109.5C6.14309 106.77 6.66307 103.12 8.17307 98C9.39307 93.87 11.713 88.02 13.323 85C14.933 81.98 16.2531 78.94 16.2431 78.25C16.2331 77.56 15.5431 77.23 14.7231 77.5C13.8931 77.77 12.9931 78 12.7231 78C12.4431 78 10.9031 80.14 9.29307 82.75C7.68307 85.36 4.97305 91.33 3.27305 96C0.453049 103.74 0.163059 105.66 0.0330588 117.5C-0.0969412 129.68 0.0530736 130.78 2.42307 135C3.81307 137.48 6.74303 141.08 8.94303 143C11.133 144.92 14.683 147.06 16.833 147.73C18.973 148.41 25.5631 148.97 31.4731 148.98C38.5431 148.99 43.8531 148.47 46.9731 147.44C49.5831 146.59 53.9731 144.71 56.7231 143.27C59.4731 141.83 64.3431 138.82 67.5531 136.58C72.4431 133.16 73.9231 131.37 76.7131 125.5C78.5431 121.65 80.8031 115.58 81.7231 112C82.6531 108.42 83.7031 102.12 84.0631 98L84.7231 90.5C107.633 89.56 114.143 88.72 119.723 87.18C124.123 85.96 131.773 82.99 136.723 80.58C142.853 77.6 147.673 74.3399 151.823 70.3499C155.183 67.1299 158.893 62.59 160.073 60.25C161.253 57.91 162.703 53.86 163.283 51.25C163.873 48.64 164.583 44.02 164.873 41C165.283 36.77 164.923 34.41 163.313 30.75C162.163 28.14 160.213 25.49 158.973 24.87C157.733 24.25 154.473 23.56 151.723 23.34C148.093 23.04 144.673 23.65 139.223 25.56ZM146.538 42.0875C142.688 41.8775 138.188 42.0576 136.538 42.4976C134.888 42.9276 131.958 44.0975 130.038 45.0975C128.108 46.0975 123.158 49.4976 119.038 52.6476C114.908 55.8076 109.038 60.9875 109.038 60.9875C109.038 60.9875 106.818 63.4176 107.288 65.0975C107.789 66.8852 108.882 66.824 111.033 66.7036C111.684 66.6671 112.431 66.6252 113.288 66.6276C116.178 66.6376 123.258 65.4876 129.038 64.0676C134.808 62.6476 142.688 59.9876 146.538 58.1476C150.388 56.2976 154.778 53.6276 156.288 52.2076C157.798 50.7776 158.928 48.8775 158.788 47.9775C158.648 47.0675 157.408 45.4576 156.038 44.3976C154.278 43.0376 151.478 42.3575 146.538 42.0875Z" fill="#030203"/>
<path d="M97.013 2.75C95.333 4.7 94.4331 7.31998 93.9331 11.75C93.4331 16.17 93.623 18.95 94.583 21.25C95.333 23.04 96.793 25.31 97.833 26.3C98.873 27.29 100.623 27.9599 101.723 27.7899C102.903 27.5999 104.523 25.83 105.653 23.49C106.723 21.29 107.783 16.58 108.023 13C108.413 7.13998 108.193 6.18 105.843 3.25C104.403 1.46 102.363 0 101.303 0C100.253 0 98.323 1.24 97.013 2.75Z" fill="#030203"/>
</svg>
