<svg width="77" height="144" viewBox="0 0 77 144" fill="none" xmlns="http://www.w3.org/2000/svg">
<path d="M18.0096 8.28007C17.9996 7.59007 18.7096 5.45007 19.5796 3.53007C20.8096 0.820072 21.7696 0.0200736 23.8296 7.36215e-05C25.2896 -0.00992638 28.0496 1.00007 29.9496 2.25007C31.8496 3.50007 34.0996 5.75006 34.9496 7.24006C36.3396 9.70006 36.3296 10.6901 34.8096 17.7401C33.8796 22.0301 32.4196 27.2201 31.5596 29.2801C30.6996 31.3401 29.3196 33.0301 28.4896 33.0301C27.6596 33.0301 25.1896 32.1301 22.9896 31.0301C20.7896 29.9301 18.0696 27.7901 16.9596 26.2801C15.8396 24.7701 14.9396 22.0701 14.9596 20.2801C14.9696 18.4901 15.6796 15.3401 16.5096 13.2801C17.3496 11.2201 18.0296 8.97007 18.0096 8.28007Z" fill="#030203"/>
<path d="M21.0596 57.5301C21.7096 53.1301 23.1296 47.5601 24.2296 45.1601C26.1096 41.0401 26.3996 40.8301 29.3596 41.4501C31.0796 41.8201 34.0696 42.8701 35.9896 43.7801C37.9096 44.6901 41.9696 47.0101 44.9896 48.9301C48.0096 50.8601 53.8696 54.9701 57.9896 58.0801C62.1196 61.1801 67.2696 65.9301 69.4496 68.6301C71.6196 71.3201 74.2596 76.0101 75.3096 79.0301C76.8596 83.5301 77.1196 86.4301 76.7296 95.0301C76.3596 103.23 75.6396 107.18 73.4696 113.03C71.9396 117.15 69.2296 122.78 67.4596 125.53C65.6896 128.28 62.2696 131.9 59.8596 133.58C57.4596 135.26 53.6896 137.38 51.4896 138.29C49.2896 139.2 44.3396 140.86 40.4896 141.97C36.6396 143.09 30.7896 143.99 27.4896 143.98C24.1896 143.97 18.7896 143.3 15.4896 142.49C12.1896 141.68 8.13961 140.21 6.48961 139.23C4.83961 138.25 2.58961 135.8 1.48961 133.78C-0.330388 130.45 -0.390381 129.7 0.809619 125.33C1.52962 122.69 2.87962 119.01 3.80962 117.15C4.72962 115.28 6.27961 113.37 7.23961 112.9C8.25961 112.39 12.8596 112.5 18.2396 113.16C23.3296 113.79 29.7396 114.5 32.4896 114.75C35.6596 115.03 40.5996 114.42 45.9896 113.07C50.6596 111.89 56.7396 109.71 59.4896 108.2C63.6496 105.93 64.4396 105.05 64.1896 103C64.0296 101.61 61.1796 97.6801 57.6896 94.0101C54.2796 90.4301 48.1196 85.2001 43.9896 82.4001C39.8696 79.6001 33.8796 75.7801 30.6796 73.9201C27.4896 72.0501 23.7496 69.4001 22.3796 68.0301C19.9096 65.5601 19.8996 65.4401 21.0596 57.5301Z" fill="#030203"/>
</svg>
