<svg width="147" height="155" viewBox="0 0 147 155" fill="none" xmlns="http://www.w3.org/2000/svg">
<path fill-rule="evenodd" clip-rule="evenodd" d="M115.795 43.87C112.765 45.45 108.945 48.28 107.295 50.17C105.645 52.06 102.875 56.51 101.125 60.05C99.3854 63.6 97.4555 68.52 96.8255 71C96.1955 73.47 95.2654 77.52 94.7454 80C94.1454 82.87 94.1654 85.77 94.7854 88C95.3254 89.92 96.6754 92.96 97.7854 94.75C98.8854 96.54 100.915 98.45 102.295 99C103.665 99.55 107.385 100 110.545 99.99C115.015 99.98 117.415 99.35 121.295 97.14C124.045 95.58 127.995 92.32 130.065 89.9C132.145 87.48 133.825 85.16 133.815 84.75C133.805 84.34 134.465 84 135.295 84C136.115 84 137.245 85.12 137.795 86.5C138.345 87.87 138.795 90.12 138.795 91.5C138.795 92.87 137.665 96.36 136.285 99.25C134.485 103.04 132.255 105.61 128.295 108.5C125.275 110.7 119.995 113.95 116.555 115.71C113.115 117.48 105.345 120.57 99.2955 122.57C92.9055 124.68 84.5255 126.63 79.2955 127.2C74.3455 127.75 62.1955 127.99 52.2955 127.73C37.9555 127.35 33.0755 126.85 28.2955 125.28C24.9955 124.19 20.4955 122.12 18.2955 120.7C16.0955 119.27 13.1755 116.61 11.7955 114.8C9.68545 112.02 9.31543 110.48 9.39543 105C9.47543 99.69 10.2655 96.76 13.6755 89C15.9655 83.77 17.8355 78.94 17.8155 78.25C17.8055 77.56 17.2355 77.16 16.5455 77.35C15.8555 77.54 13.6755 80.12 11.6955 83.1C9.71548 86.07 7.29546 90.52 6.30546 93C5.31546 95.47 3.9354 100.42 3.2354 104C2.5454 107.58 1.4254 113.2 0.745405 116.5C0.0654049 119.8 -0.194561 124.52 0.155439 127C0.515439 129.47 2.26546 133.97 4.05546 137C6.17546 140.59 9.04546 143.65 12.3055 145.81C15.0455 147.62 19.0955 149.58 21.2955 150.15C23.4955 150.72 29.5655 151.83 34.7955 152.6C40.0155 153.38 48.9055 154.01 54.5455 154.01C60.1855 154 68.0555 153.53 72.0455 152.95C76.0355 152.37 84.0155 150.77 89.7955 149.4C95.9155 147.95 104.045 145.09 109.295 142.54C114.245 140.14 121.215 135.99 124.795 133.33C129.895 129.52 132.215 126.86 135.545 120.99C137.885 116.87 141.185 109.67 142.875 105C145.535 97.67 146.035 94.71 146.495 83.5C146.815 75.68 146.585 68.21 145.915 64.75C145.225 61.21 143.355 56.81 141.045 53.29C138.805 49.88 135.485 46.46 132.795 44.78C130.315 43.24 126.715 41.76 124.795 41.49C122.205 41.13 119.855 41.75 115.795 43.87ZM123.416 58.445C120.076 58.567 115.39 59.909 112.979 61.4339C110.569 62.9587 108.293 66.2524 107.929 68.7837C107.552 71.315 108.01 75.4931 108.939 78.0548C109.99 81.0131 112.643 82.66 116.009 82.477C118.972 82.294 123.456 80.5252 125.975 78.5124C128.506 76.53 131.227 72.4433 132.035 69.4545C133.179 65.2764 133.058 63.3551 131.496 61.1288C130.378 59.5124 126.742 58.2925 123.416 58.445Z" fill="#030203"/>
<path d="M102.945 3.75C101.915 5.81 100.105 10.31 98.9355 13.75C97.1055 19.09 96.9755 20.4 98.0555 22.75C98.8255 24.43 101.445 26.62 104.805 28.39C108.435 30.31 110.745 30.99 111.625 30.39C112.355 29.9 113.815 27.02 114.875 24C115.935 20.97 116.805 16.14 116.805 13.25C116.795 10.36 116.455 7.27001 116.045 6.39001C115.635 5.50001 113.155 3.70001 110.545 2.39001C107.935 1.07001 105.575 0 105.315 0C105.045 0 103.985 1.69 102.945 3.75Z" fill="#030203"/>
</svg>
