<svg width="90" height="180" viewBox="0 0 90 180" fill="none" xmlns="http://www.w3.org/2000/svg">
<path d="M14.4664 7.25C15.3464 4.64 16.5264 1.94 17.0764 1.25C17.6264 0.56 18.7064 0 19.4664 0C20.2364 0 22.4264 1.58 24.3564 3.5C27.2464 6.39 27.7764 7.57 27.4264 10.25C27.1964 12.04 26.5364 15.52 25.9764 18C25.4164 20.47 24.3665 22.83 23.6565 23.23C22.9365 23.64 21.1164 23.98 19.6064 23.98C18.0964 23.99 15.9564 23.1 14.8564 22C13.5231 20.6667 12.8564 18.6667 12.8564 16C12.8564 13.8 13.5764 9.86 14.4664 7.25Z" fill="#030203"/>
<path d="M12.6264 39.7C14.1264 38.16 17.3764 36.28 19.8564 35.52C22.3264 34.76 27.7264 34.11 31.8564 34.07C37.7464 34.02 40.0464 34.44 42.5564 36.03C44.3164 37.15 45.6664 38.55 45.5564 39.15C45.4464 39.75 41.9764 41.54 37.8564 43.13C33.7264 44.72 27.5065 47.48 24.0265 49.26C20.5465 51.04 16.6065 53.51 15.2765 54.75C13.4365 56.46 12.9164 57.87 13.1064 60.65C13.2864 63.33 14.1164 64.86 16.1864 66.4C18.1664 67.87 20.8764 68.6 25.1864 68.83C30.7264 69.13 31.8664 68.83 36.3564 65.94C39.1064 64.17 43.2664 61.44 45.6064 59.86C47.9464 58.29 50.0764 57 50.3564 57C50.6264 57 52.0964 56.05 53.6064 54.89C55.4164 53.49 56.8364 53.07 57.7564 53.64C58.7564 54.26 59.0064 55.77 58.6264 59C58.3264 61.47 57.1364 65.64 55.9764 68.25C54.0664 72.53 52.5464 73.86 40.6064 81.72C33.3164 86.51 24.6464 93.15 21.3364 96.47C17.2564 100.56 16.8343 104.23 9.63428 118.5L8.54636 125C9.54636 128.02 11.3664 132.29 12.5964 134.5C13.8264 136.7 17.6564 141.34 21.0964 144.82C24.5764 148.33 29.5764 152.16 32.3564 153.45C35.1064 154.73 39.8264 156.28 42.8564 156.91C47.2664 157.82 50.4464 157.73 58.8564 156.47C64.6264 155.61 72.7264 154.05 76.8564 153.01C80.9764 151.96 85.5964 150.64 87.1064 150.06C89.2064 149.25 89.8564 149.3 89.8764 150.25C89.8764 150.94 88.1964 153.09 86.1264 155.03C84.0464 156.98 80.1064 160.39 77.3564 162.61C74.6064 164.83 69.4264 168.64 65.8564 171.09C62.2764 173.53 56.6564 176.62 53.3564 177.95C47.7264 180.21 46.9864 180.28 41.3564 179.08C38.0564 178.38 33.1064 176.97 30.3564 175.96C27.6064 174.94 22.6564 172.16 19.3564 169.76C15.5764 167.02 11.7664 163.03 9.05637 158.96C6.68637 155.41 3.79643 150.02 2.61643 147C1.14643 143.21 0.366413 138.55 0.0964127 132C-0.183587 125.25 0.136379 121.34 1.18638 118.5C1.99638 116.3 2.95637 113.15 3.30637 111.5C3.65637 109.85 6.05642 104.15 13.3564 89.15L8.53648 83.83C5.87648 80.9 3.45645 77.37 3.13645 76C2.82645 74.62 2.8064 69.9 3.0864 65.5C3.4564 59.62 4.42643 55.51 6.73643 50C8.46643 45.87 11.1164 41.24 12.6264 39.7Z" fill="#030203"/>
</svg>
