<svg width="127" height="173" viewBox="0 0 127 173" fill="none" xmlns="http://www.w3.org/2000/svg">
<path d="M21.11 4.0438C24.07 2.4238 28.07 0.773793 30 0.383793C31.93 -0.016207 38 -0.116205 43.5 0.143795C49 0.413795 60.47 1.58379 69 2.75379C80.48 4.32379 89.92 4.8938 105.42 4.9338C123.09 4.9838 126.41 5.22379 126.81 6.49379C127.07 7.32379 126.74 11.5938 126.08 15.9938C125.41 20.3938 123.66 26.4638 122.18 29.4938C119.74 34.4938 119.14 35.0538 115.5 35.6638C113.3 36.0338 106.32 37.0438 100 37.9038C93.68 38.7638 84.9 40.4038 80.5 41.5438C76.1 42.6838 66.89 46.1738 60.04 49.3038C53.19 52.4338 45.09 56.7238 42.04 58.8438C38.99 60.9538 34.31 64.7838 31.63 67.3438C28.96 69.9038 24.41 75.1438 21.53 78.9938C18.66 82.8438 15.56 87.4538 14.65 89.2438C13.74 91.0338 13 93.8438 13 95.4938C13 97.1438 14.02 101.304 15.27 104.744C16.52 108.184 18.72 113.024 20.16 115.494C21.6 117.964 24.8 122.244 27.28 124.994C29.75 127.744 34.41 131.564 37.63 133.494C40.84 135.424 47.08 138.254 51.49 139.794C55.89 141.334 62.65 142.844 66.5 143.164C71.45 143.574 75.41 143.244 80 142.054C83.57 141.134 89.43 138.934 93 137.184C97.09 135.174 101.91 131.584 106.01 127.494C109.59 123.924 114.67 118.524 122.07 109.994L121.65 113.494C121.42 115.424 120.1 121.044 118.71 125.994C117.32 130.944 115.02 137.464 113.6 140.494C112.17 143.524 108.98 148.584 106.5 151.744C103.66 155.364 99.13 159.364 94.25 162.544C89.99 165.314 84.03 168.494 81 169.614C77.97 170.724 72.8 171.894 69.5 172.204C66.2 172.524 59 172.184 53.5 171.454C45.69 170.414 41.75 169.274 35.5 166.264C29.02 163.134 26.01 160.834 19.7 154.194C14.48 148.714 10.75 143.674 8.46 138.994C5.97 133.924 4.71 129.514 3.85 122.994C2.94 116.104 2.94 111.414 3.83 102.994C4.47 96.9438 5.68 89.2938 6.53 85.9938C7.37 82.6938 9.66 76.6138 11.62 72.4938C13.57 68.3638 17.55 61.3938 20.47 56.9938C23.39 52.5938 28.19 46.4938 31.14 43.4438C34.09 40.3938 38.53 36.2338 41 34.2038C43.47 32.1738 45.12 30.1638 44.67 29.7538C44.21 29.3338 39.47 28.9938 34.15 28.9938C25.1 28.9938 24 29.2238 17.48 32.4638C13.6 34.3938 8.72 37.8338 6.5 40.2238C4.3 42.5838 1.94 44.5038 1.25 44.5038C0.56 44.4938 0 44.0438 0 43.4938C0 42.9438 0.640004 39.2338 1.41 35.2438C2.19 31.2538 3.74 25.5238 4.85 22.4938C5.96 19.4638 8.86 14.7438 11.29 11.9938C13.73 9.24379 18.14 5.6638 21.11 4.0438Z" fill="#030203"/>
</svg>
