<svg width="168" height="137" viewBox="0 0 168 137" fill="none" xmlns="http://www.w3.org/2000/svg">
<path fill-rule="evenodd" clip-rule="evenodd" d="M79 1.86172C75.7 2.84172 71.54 4.38165 69.75 5.29165C67.96 6.20165 64.42 8.85167 61.89 11.1917C59.35 13.5317 56.65 16.6817 55.89 18.1917C55.12 19.7017 54.5 22.4017 54.5 24.1917C54.51 25.9817 55.41 28.9017 56.5 30.6917C57.6 32.4817 59.96 34.8417 61.75 35.9417C63.54 37.0317 65.79 37.9317 66.75 37.9417C67.71 37.9417 72.21 35.6517 76.75 32.8617C84.5 28.0917 85.33 27.8017 90.5 28.1717C94.19 28.4417 98.24 29.7017 102.8 32.0017C107.15 34.2017 112.41 38.1517 117.34 42.9417C121.6 47.0617 127.06 53.3617 129.47 56.9417C131.89 60.5217 134.95 65.9117 136.27 68.9417C137.59 71.9717 139.07 76.2417 139.54 78.4417C140.02 80.6417 140.73 83.5617 141.11 84.9417C141.57 86.5717 141.24 88.4017 140.16 90.1917C139.25 91.7017 137.04 93.8417 135.25 94.9417C132.79 96.4517 130.24 96.9317 124.75 96.9417C119.84 96.9417 117.36 96.5417 117.07 95.6917C116.84 95.0017 117.12 91.2917 117.69 87.4417C118.44 82.3717 118.4 78.5117 117.55 73.4417C116.86 69.3417 115.06 63.9916 113.19 60.5416C111.43 57.2916 107.96 52.7916 105.46 50.5416C102.97 48.2816 98.69 45.7016 95.96 44.7916C93.23 43.8816 89.65 42.8517 88 42.5017C86.35 42.1417 83.2 42.3017 81 42.8417C78.8 43.3817 75.2 44.2717 73 44.8217C70.04 45.5617 67.38 47.5216 62.75 52.3816C58.35 56.9916 56.17 60.2017 55.38 63.1917C54.77 65.5417 54.48 71.2417 54.73 75.9417C54.99 80.7217 55.91 85.9717 56.82 87.9417C57.71 89.8617 60.03 93.3517 61.97 95.6917C63.91 98.0317 65.5 100.612 65.5 101.442C65.5 102.272 63.81 103.652 61.75 104.512C59.69 105.382 55.52 106.522 52.5 107.052C49.47 107.582 42.61 108.682 37.25 109.482C28.62 110.772 26.9 110.772 22.25 109.432C19.36 108.602 15.54 107.922 13.75 107.932C11.96 107.942 9.26 108.562 7.75 109.322C6.08 110.162 4.01 112.762 2.5 115.912L0 121.112C3.87 128.232 6.12 131.122 7.5 132.142C8.87 133.152 12.47 134.432 15.5 134.992C18.52 135.552 23.25 136.282 26 136.612C28.75 136.952 35.5 136.682 41 136.022C46.5 135.362 53.92 134.132 57.5 133.292C61.07 132.452 66.47 130.862 69.5 129.752C72.52 128.632 79.27 125.682 84.5 123.182L94 118.632C103.3 120.402 109.6 121.442 114 122.092C120.27 123.012 124.27 123.002 132.5 122.002C138.27 121.302 144.93 119.992 147.29 119.082C149.64 118.182 153.66 115.862 156.21 113.942C158.76 112.022 161.82 108.642 163.01 106.442C164.2 104.242 165.76 99.2917 166.47 95.4417C167.58 89.4617 167.54 86.8317 166.18 77.4417C165.29 71.3417 163.41 63.5417 161.95 59.9417C160.51 56.3617 157.22 49.8917 154.66 45.5517C152.1 41.2117 147.5 34.6917 144.45 31.0517C141.39 27.4217 135.09 21.6716 130.45 18.2916C125.8 14.9116 118.85 10.4617 115 8.42165C111.15 6.37165 103.72 3.62166 98.5 2.30166C93.27 0.991657 88.1 -0.0482697 87 0.00173032C85.9 0.0517303 82.3 0.891716 79 1.86172ZM82.2899 61.6417C76.8166 61.6863 73.6494 64.3675 72.2249 67.6417C70.9878 70.4037 67.9033 74.3652 70.7899 78.6417C71.4697 80.502 71.9697 84.002 73.4697 85.502C75.1495 90.3622 77.9122 92.5302 81.4697 94.502C85.1722 96.554 86.1598 96.3478 89.5513 95.6917C90.7613 95.4576 95.2798 94.9475 95.96 94.9417C99.2965 94.9194 104.975 91.066 104.3 81.7779C103.625 72.3117 101.396 68.0941 95.96 64.6417C91.8363 62.0135 86.8635 61.5972 82.2899 61.6417Z" fill="#030203"/>
</svg>
