<svg width="106" height="150" viewBox="0 0 106 150" fill="none" xmlns="http://www.w3.org/2000/svg">
<path d="M27.2834 9.34009C29.1234 7.58009 33.2734 4.77009 36.5134 3.09009C41.7434 0.360089 43.3634 0.0201228 51.0134 0.000122804C57.1234 -0.0098772 61.3634 0.590172 65.6234 2.05017C68.9234 3.18017 72.6434 5.10018 73.9034 6.31018C76.0134 8.37018 76.1734 9.34014 76.1534 20.2701C76.1334 29.2001 75.6534 33.4001 74.1834 37.7701C73.1234 40.9301 71.4734 45.1001 70.5334 47.0201C69.5834 48.9401 68.6634 50.6301 68.4734 50.7701C68.2834 50.9101 66.6634 49.9102 64.8734 48.5602C63.0834 47.2002 58.9234 45.2902 55.6234 44.3202C52.1934 43.3002 46.4134 42.5402 42.1234 42.5502C36.1334 42.5602 33.6334 43.0602 29.7134 45.0402C27.0134 46.4002 24.5434 48.1102 24.2134 48.8202C23.8634 49.6002 26.2634 52.7402 30.1234 56.5602C33.7434 60.1402 39.2834 64.3401 42.6234 66.0302C46.9734 68.2402 49.9934 69.0602 53.6234 69.0402C56.3734 69.0202 61.0934 68.5601 64.1234 68.0201C67.1434 67.4701 71.4234 66.6001 73.6234 66.0901C75.8234 65.5801 80.0934 64.2602 83.1234 63.1602C86.1434 62.0602 91.0934 60.1801 94.1234 58.9801C97.1434 57.7801 100.863 56.6201 105.123 56.0201L105.133 64.7701C105.143 69.5901 104.453 75.9901 103.613 79.0201C102.773 82.0501 101.303 86.9402 100.353 89.9102C99.2234 93.4302 97.5834 96.0901 95.6234 97.6001C93.9734 98.8601 89.4734 101.33 85.6234 103.08C81.7734 104.82 75.4734 107.36 71.6234 108.71C67.7734 110.06 60.5734 112.79 55.6234 114.78C50.6734 116.77 41.4434 121.07 35.1234 124.33C28.7934 127.59 21.8234 131.51 19.6234 133.04C17.4234 134.56 12.8134 138.78 9.37338 142.42C5.93338 146.05 2.33338 149.03 1.37338 149.03C-0.206617 149.04 -0.29662 148.35 0.46338 141.78C0.92338 137.79 2.38339 130.47 3.72339 125.52C5.05339 120.57 7.1234 114.49 8.3234 112.02C9.5134 109.55 12.0934 105.16 17.6234 97.0302L14.9334 93.2802C13.4434 91.2102 11.2634 87.2701 10.0634 84.5201C8.19339 80.2201 7.90338 77.7801 7.99338 67.0201C8.04338 60.1401 8.50338 53.1701 9.02338 51.5201C9.53338 49.8701 10.9234 44.9201 12.1134 40.5201C13.2934 36.1201 16.4434 28.0201 19.1034 22.5201C21.7634 17.0201 25.4434 11.0901 27.2834 9.34009Z" fill="#030203"/>
</svg>
