<svg width="135" height="173" viewBox="0 0 135 173" fill="none" xmlns="http://www.w3.org/2000/svg">
<path d="M23.3363 3.49904C25.8163 2.04904 30.0863 0.619039 32.8363 0.309039C35.5863 -0.0109609 41.2063 -0.0909617 45.3363 0.109038C49.4563 0.309038 60.2663 1.41904 69.3363 2.55904C78.4063 3.70904 91.0163 4.62904 97.3363 4.60904C103.656 4.58904 112.326 4.07904 116.586 3.46904C120.846 2.85904 124.786 2.57904 125.336 2.85904C125.886 3.12904 126.326 5.26904 126.326 7.60904C126.316 9.94904 125.606 14.779 124.756 18.359C123.906 21.929 122.446 26.109 121.516 27.629C120.536 29.249 118.166 30.979 115.836 31.799C113.636 32.559 104.856 35.279 96.3363 37.839C84.4563 41.399 78.0363 44.009 68.8363 49.019C62.2363 52.619 53.9063 57.649 50.3363 60.199C46.7663 62.749 39.8663 68.899 35.0163 73.849C30.1563 78.809 25.0063 84.889 23.5663 87.359C22.1263 89.829 20.5763 93.549 20.1363 95.609C19.6163 98.069 19.8563 101.859 20.8563 106.609C21.6963 110.599 23.4363 115.659 24.7363 117.859C26.0263 120.059 29.7463 124.329 32.9963 127.359C36.2363 130.389 42.0263 134.509 45.8663 136.519C49.6963 138.539 55.7663 141.179 59.3363 142.389C64.2763 144.059 68.1163 144.589 75.3363 144.559C80.9063 144.539 87.5263 143.839 91.3363 142.849C94.9063 141.919 100.086 140.029 102.836 138.649C105.586 137.269 109.396 134.949 111.296 133.499C113.196 132.049 116.346 128.389 118.296 125.359C120.246 122.329 124.256 113.789 127.206 106.359C130.156 98.929 132.976 92.409 133.466 91.859C134.026 91.249 134.366 92.109 134.356 94.109C134.346 95.899 133.246 102.199 131.916 108.109C130.576 114.019 128.056 123.139 126.296 128.359C124.536 133.579 121.416 141.229 119.346 145.359C117.156 149.729 113.556 154.859 110.716 157.649C108.036 160.289 102.456 164.169 98.3363 166.259C94.2063 168.359 87.9063 170.689 84.3363 171.439C80.7663 172.189 74.2363 172.769 69.8363 172.719C65.4363 172.669 59.1363 172.079 55.8363 171.419C52.5363 170.749 45.6763 168.219 40.5863 165.779C33.4063 162.349 29.8263 159.849 24.5763 154.609C19.9963 150.029 16.7263 145.609 14.4263 140.859C12.0063 135.889 10.7463 131.539 10.0863 125.859C9.49633 120.809 9.51632 114.169 10.1363 107.859C10.7863 101.139 12.3063 94.249 14.7663 86.859C16.7763 80.809 20.0163 72.709 21.9563 68.859C23.9063 65.009 27.2463 59.609 29.3863 56.859C31.5263 54.109 35.4263 49.599 38.0563 46.849C40.6863 44.089 45.7663 39.299 49.3363 36.199C52.9063 33.099 55.4563 30.179 54.9963 29.709C54.5263 29.239 49.1263 28.519 42.9963 28.109C36.3163 27.659 29.8263 27.759 26.8363 28.359C24.0863 28.909 19.3763 30.819 16.3563 32.609C11.4763 35.509 10.3863 36.809 6.35632 44.589C3.87632 49.399 1.38633 53.179 0.836332 52.989C0.286332 52.799 -0.0836752 50.219 0.0163248 47.249C0.116325 44.289 1.62634 37.579 3.37634 32.359C5.12634 27.139 7.41632 21.169 8.44632 19.109C9.48632 17.049 12.2463 13.279 14.5863 10.739C16.9263 8.20904 20.8563 4.94904 23.3363 3.49904Z" fill="#030203"/>
<path d="M65.9963 79.859C66.8763 77.109 68.0463 74.299 68.5763 73.609C69.1163 72.919 69.9563 72.359 70.4463 72.359C70.9363 72.359 73.6963 73.449 76.5863 74.779C79.4763 76.109 82.5163 77.969 83.3363 78.899C84.6263 80.369 84.6663 81.569 83.5863 87.489C82.8963 91.269 81.4363 96.829 80.3363 99.859C78.9563 103.639 77.7863 105.369 76.5863 105.379C75.6263 105.399 72.8163 104.539 70.3363 103.479C67.8663 102.419 65.1663 100.769 64.3363 99.829C63.1363 98.459 62.9963 96.769 63.6163 91.489C64.0463 87.839 65.1163 82.609 65.9963 79.859Z" fill="#030203"/>
</svg>
