<svg width="118" height="176" viewBox="0 0 118 176" fill="none" xmlns="http://www.w3.org/2000/svg">
<path d="M87.1187 19.0411C88.0787 14.9111 89.7887 8.95113 90.9187 5.79113C92.0487 2.63113 93.4387 0.0211512 94.0187 0.00115123C94.5987 -0.0288488 95.5887 0.531151 96.2087 1.25115C96.8387 1.96115 98.9387 9.06113 100.879 17.0411C102.819 25.0111 104.689 34.0111 105.029 37.0411C105.379 40.0611 106.339 45.9111 107.169 50.0411C107.999 54.1611 109.309 60.0111 110.079 63.0411C110.849 66.0611 112.859 75.4011 114.529 83.7911C117.169 96.9911 117.579 101.231 117.599 115.291C117.609 130.761 117.459 132.021 114.459 141.541C112.729 147.041 109.879 153.791 108.139 156.541C106.389 159.291 102.959 163.141 100.519 165.101C98.0787 167.051 94.7287 169.231 93.0787 169.941C91.4287 170.651 86.6987 172.141 82.5787 173.261C76.2787 174.961 71.0787 175.361 50.0787 175.761C33.1987 176.071 23.1287 175.851 19.0787 175.051C15.7787 174.411 10.4687 172.681 7.27873 171.211C4.08873 169.741 1.30878 167.871 1.10878 167.041C0.89878 166.211 0.478778 164.191 0.168778 162.541C-0.131222 160.891 -0.0212222 155.711 0.418778 151.041C0.878778 146.201 2.04873 140.841 3.14873 138.591C4.20873 136.421 5.63872 134.511 6.32872 134.341C7.01872 134.181 9.03872 135.361 10.8287 136.981C12.6187 138.591 16.7787 140.911 20.0787 142.141C25.4187 144.121 28.4587 144.411 47.5787 144.791C60.9687 145.061 72.0987 144.781 77.0787 144.061C81.4787 143.421 87.5487 142.201 90.5787 141.341C93.5987 140.491 98.0987 138.771 100.579 137.541C103.049 136.301 105.629 134.671 106.309 133.911C106.989 133.161 107.609 131.191 107.679 129.541C107.759 127.891 106.409 120.011 104.679 112.041C102.959 104.061 100.149 91.6911 98.4487 84.5411C96.7487 77.3911 94.0787 66.1411 92.5187 59.5411C90.9587 52.9411 88.7087 42.8111 87.5187 37.0411C85.4087 26.7611 85.3987 26.3811 87.1187 19.0411Z" fill="#030203"/>
<path d="M35.5787 66.5411C36.6787 64.0611 39.8887 59.5611 42.7187 56.5411C46.7987 52.1811 48.5087 51.0411 50.9687 51.0211C52.6987 51.0111 55.0787 51.8911 56.3287 53.0211C57.5687 54.1311 58.6287 55.6011 58.6787 56.2911C58.7387 56.9811 58.6887 59.1211 58.5787 61.0411C58.4687 62.9611 57.9787 65.3311 57.4787 66.2911C56.8087 67.6011 55.3287 68.0411 51.5787 68.0411C48.8287 68.0411 45.6787 68.4911 44.5787 69.0411C43.4787 69.5911 42.5787 70.9411 42.5787 72.0411C42.5787 73.3511 43.6987 74.5111 45.8287 75.4111C47.6187 76.1711 52.8987 77.3411 57.5787 78.0211C62.2487 78.7111 66.6387 79.4411 67.3287 79.6511C68.2487 79.9411 68.5087 82.9211 68.3287 90.9511C68.0887 101.481 67.9687 102.001 64.9887 105.701C63.2887 107.811 59.9187 110.661 57.4887 112.041C53.5187 114.291 51.9887 114.541 42.0787 114.531C33.7687 114.511 30.1587 114.091 27.3287 112.781C24.8287 111.621 23.5787 110.374 23.5787 109.041C23.5787 107.331 24.4187 106.961 29.3287 106.511C32.4887 106.221 37.5487 105.281 40.5787 104.411C43.5987 103.541 48.2587 101.641 50.9287 100.191C53.5987 98.7312 56.5187 96.7211 57.4287 95.7311C58.8787 94.1311 58.8987 93.8011 57.5787 92.9311C56.7487 92.3811 53.8287 92.1411 51.0787 92.3911C48.1587 92.6611 44.4187 92.2612 42.0787 91.4412C39.8787 90.6712 37.0587 89.0211 35.7987 87.7911C33.8487 85.8511 33.5287 84.5311 33.5487 78.2911C33.5687 73.2511 34.1887 69.6711 35.5787 66.5411Z" fill="#030203"/>
</svg>
