<svg width="103" height="159" viewBox="0 0 103 159" fill="none" xmlns="http://www.w3.org/2000/svg">
<path d="M41.81 10.93C42.54 6.55001 43.6 2.29001 44.17 1.48001C44.74 0.670011 46.5001 0 48.0901 0C50.0801 0 51.6101 0.85 53.0101 2.75C54.5901 4.87 55.0401 6.98002 55.0001 12C54.9701 15.57 54.38 19.62 53.69 21C52.78 22.82 51.4901 23.58 48.9601 23.81C46.2701 24.04 44.9101 23.52 42.9801 21.51C40.4801 18.91 40.48 18.89 41.81 10.93Z" fill="#030203"/>
<path d="M25.9801 37.16C29.5601 36.42 32.9301 35.64 33.4801 35.42C34.0301 35.2 38.0801 35.24 42.4801 35.5C46.8801 35.77 52.0601 36.44 53.9801 36.99C55.9001 37.55 60.6301 38.01 64.4801 38.02C68.3301 38.03 75.0801 38.69 79.4801 39.48C83.8801 40.28 89.8401 40.95 92.7301 40.97C96.4301 40.99 98.45 41.52 99.56 42.75C100.66 43.98 100.93 45.4 100.44 47.5C100.06 49.15 99.1201 52.07 98.3401 54C97.5701 55.92 96.9601 58.17 96.9901 59C97.0201 59.82 96.2401 61.21 95.2601 62.08C94.2801 62.95 91.6801 64.18 89.4801 64.81C87.2801 65.45 84.2401 65.97 82.7301 65.98C81.2201 65.99 77.1701 66.71 73.7301 67.57C70.2901 68.43 64.1101 70.09 59.9801 71.26C55.8601 72.42 49.1101 74.95 44.9801 76.86C40.8601 78.78 33.8801 82.91 29.4801 86.05C23.2701 90.47 20.82 92.95 18.55 97.12C16.76 100.42 15.61 104.05 15.57 106.5C15.54 108.9 16.6001 112.69 18.2201 116C19.7001 119.02 23.06 123.69 25.69 126.37C28.38 129.1 33.3301 132.61 36.9801 134.37C43.2801 137.4 43.9001 137.5 56.9801 137.5C69.9101 137.5 70.7101 137.38 75.9801 134.62C79.0101 133.04 86.1101 127.41 91.7601 122.12C97.4201 116.83 102.37 112.83 102.76 113.24C103.16 113.65 102.43 116.35 101.14 119.24C99.8501 122.13 96.7701 128.32 94.2901 133C91.5001 138.27 87.4501 143.9 83.6301 147.83C80.2501 151.31 75.6801 155.13 73.4801 156.33C69.8301 158.31 68.0301 158.5 52.9801 158.5C36.5101 158.5 36.4701 158.49 29.9801 155.34C26.1901 153.5 21.7101 150.27 19.2301 147.59C16.8901 145.07 13.9001 140.86 12.5801 138.25C11.2601 135.64 9.65009 130.57 9.0001 127C8.2501 122.88 8.07011 117.02 8.51011 111C8.93011 105.19 10.1401 98.78 11.6201 94.5C12.9501 90.65 15.1501 85.81 16.5101 83.75C17.8701 81.69 18.9801 79.55 18.9801 79C18.9801 78.45 22.2401 74.6 26.2301 70.44C30.2201 66.28 34.2701 62.68 35.2301 62.44C36.1901 62.2 36.9801 61.32 36.9801 60.5C36.9801 59.28 35.2801 59 27.7301 58.98C21.0501 58.96 17.5101 59.43 14.9801 60.65C13.0601 61.58 9.68008 63.85 7.48008 65.69C5.28008 67.54 2.69008 69.03 1.73008 69.02C0.770076 69.01 -0.00990491 68.44 9.50943e-05 67.75C9.50943e-05 67.06 0.870017 63.57 1.92002 60C2.97002 56.42 5.34004 51.48 7.19004 49C9.04004 46.52 12.5601 43.15 15.0101 41.5C17.5901 39.77 22.2301 37.93 25.9801 37.16Z" fill="#030203"/>
</svg>
