<svg width="110" height="167" viewBox="0 0 110 167" fill="none" xmlns="http://www.w3.org/2000/svg">
<path fill-rule="evenodd" clip-rule="evenodd" d="M93.54 5.25C91.4 9.59 90.96 11.89 90.98 18.5C90.99 22.9 91.67 28.97 92.48 32C93.4 35.43 93.97 42.21 93.98 50C94 59.66 93.5801 63.75 92.1301 68C91.1001 71.03 88.2301 77.55 85.7501 82.5C83.2701 87.45 80.5 92.06 79.61 92.75C78.71 93.44 77.53 93.78 76.98 93.5C76.43 93.22 75.4501 91.31 74.8101 89.25C74.1601 87.19 70.52 79.42 66.71 72C62.91 64.58 56.5101 53.55 52.5001 47.5C47.6301 40.15 40.11 31.0899 29.84 20.1899C21.39 11.2199 13.35 3.24997 11.98 2.46997C10.6 1.69997 8.80004 1.04001 7.98004 1.01001C7.15004 0.97001 5.92005 1.96997 5.24005 3.21997C4.56005 4.47997 3.10006 8.42 2.00006 12C0.900061 15.58 6.05479e-05 19.4 6.05479e-05 20.5C-0.00993945 21.6 1.22004 24.3801 2.73004 26.6801C4.24004 28.9801 10.65 35.62 16.98 41.45C23.3 47.27 28.7 52.01 28.98 51.99C29.25 51.97 33.33 56.8 38.04 62.73C42.75 68.65 48.23 76.2 50.22 79.5C52.21 82.8 56.29 90.45 59.29 96.5C62.29 102.55 65.0201 108.85 65.3701 110.5C65.8001 112.55 65.4401 114.33 64.2401 116.11C63.2701 117.54 59.18 122.27 55.14 126.61C51.1 130.95 46.71 136.64 45.39 139.25C44.06 141.86 42.42 146.08 41.73 148.63C41.04 151.17 40.14 153.42 39.73 153.63C39.32 153.83 39 155.91 39.02 158.25C39.05 161.4 39.63 162.96 41.27 164.28C42.9 165.59 45.19 166.05 49.98 166.01C53.55 165.99 60.3 165.51 64.98 164.95C69.65 164.39 75.4801 163.61 77.9301 163.22C81.4101 162.66 82.76 161.85 84.15 159.5C85.13 157.85 87.0601 152.45 88.4401 147.5C89.8201 142.55 90.96 137.15 90.97 135.5C90.99 133.85 89.33 126.87 87.3 120L83.61 107.5C86.43 99.75 88.5101 94.8 90.0601 91.5C91.6001 88.2 94.02 82.69 95.42 79.25C96.83 75.81 99.33 66.25 100.98 58C102.98 48 104.98 41 106.98 37C109.51 31.93 109.98 29.83 109.98 23.5C109.98 16.42 109.78 15.76 106.51 11.75C104.6 9.41 102.12 5.81 101.01 3.75C99.8901 1.69 98.34 0 97.55 0C96.77 0 94.96 2.36 93.54 5.25ZM72.65 126C71.92 126 70.3901 127.01 69.2501 128.25C68.909 128.624 68.4221 129.093 67.877 129.618C66.616 130.832 65.0429 132.347 64.2401 133.688C63.7951 134.424 62.3528 136.546 60.7436 138.915C58.1573 142.721 55.14 147.161 55.14 147.5C55.14 148.1 62.3012 151.407 66.0312 151.188C69.4713 150.987 75.18 149.12 75.73 148.63C76.39 148.06 79.6812 135.818 78.5312 132.188C77.5612 129.148 73.38 126 72.65 126Z" fill="#030203"/>
</svg>
