<svg width="92" height="181" viewBox="0 0 92 181" fill="none" xmlns="http://www.w3.org/2000/svg">
<path d="M67.3934 5.59787C68.5534 3.13787 70.0034 0.777824 70.6234 0.367824C71.2334 -0.0521763 72.6434 -0.122149 73.7434 0.207851C74.8434 0.527851 76.7734 1.75782 78.0234 2.92782C79.2834 4.10782 81.1934 6.97784 82.2734 9.31784C83.6434 12.2678 84.2434 15.7178 84.2434 20.5678C84.2434 24.4178 83.7734 28.8078 83.2034 30.3178C82.4034 32.4478 82.6434 34.9978 84.2734 41.5678C85.4434 46.2378 87.0034 53.4378 87.7634 57.5678C88.5134 61.6878 89.6534 69.3378 90.2834 74.5678C91.0134 80.5778 91.2634 93.2378 90.9534 109.068C90.5634 129.518 90.1134 135.528 88.4834 142.068C87.3834 146.468 85.4634 152.768 84.2034 156.068C82.5834 160.348 80.3234 163.658 76.3334 167.618C71.9034 172.018 69.3934 173.598 64.2434 175.258C60.6634 176.408 54.1434 178.138 49.7434 179.108C44.3634 180.288 39.7834 180.668 35.7434 180.268C32.4434 179.938 26.8134 178.918 23.2434 178.008C19.6634 177.088 15.1634 175.538 13.2434 174.558C11.3134 173.578 8.50338 171.598 6.99337 170.168C5.48337 168.738 3.26337 165.428 2.05337 162.818C0.0133727 158.388 -0.116627 156.738 0.0533726 138.318C0.213373 121.498 0.543384 117.638 2.28338 112.318C3.40338 108.878 4.97338 105.058 5.78338 103.818C6.58338 102.578 7.69337 101.568 8.24337 101.568C8.79338 101.568 9.25336 102.358 9.26336 103.318C9.28336 104.278 8.55339 106.868 7.66339 109.068C6.39339 112.168 6.11337 115.438 6.42337 123.568C6.75337 132.238 7.25338 134.938 9.31338 139.068C11.3234 143.118 12.7634 144.538 16.8834 146.568C19.6834 147.938 25.7434 149.918 30.3634 150.958C38.7034 152.848 38.8034 152.848 51.4934 150.708C59.0159 149.443 65.4394 147.812 69.5215 146.13C70.6603 144.876 77.14 140.729 78.7121 137C77.9321 133.29 82.1534 93.6878 81.8534 89.5678C81.5534 85.4378 80.2134 77.5678 78.8734 72.0678C77.5334 66.5678 74.5934 56.1078 72.3334 48.8178C70.0834 41.5278 68.2434 34.3278 68.2334 32.8178C68.2234 31.3078 67.5434 27.8178 66.7234 25.0678C65.8934 22.3178 65.2334 17.8178 65.2534 15.0678C65.2734 12.1278 66.1534 8.21786 67.3934 5.59787Z" fill="#030203"/>
</svg>
