<svg width="68" height="163" viewBox="0 0 68 163" fill="none" xmlns="http://www.w3.org/2000/svg">
<path d="M17.932 8.09665C20.292 5.38665 24.022 2.35666 26.222 1.35666C28.742 0.206663 31.332 -0.243379 33.222 0.126621C34.872 0.446621 39.482 2.23661 43.472 4.11661C48.192 6.32661 53.012 9.69664 57.292 13.7666C60.912 17.2066 64.732 21.8166 65.782 24.0166C66.862 26.2766 67.702 30.1966 67.712 33.0166C67.732 35.7666 66.802 41.6166 65.652 46.0166C64.512 50.4166 62.482 55.4766 61.142 57.2666C59.812 59.0566 57.262 61.3966 55.472 62.4666C53.682 63.5466 48.392 65.3766 43.722 66.5367C39.042 67.6967 32.522 69.3166 29.222 70.1466C25.922 70.9666 21.642 72.1166 19.722 72.6866C17.792 73.2666 15.132 74.4766 13.812 75.3766C11.662 76.8366 11.462 77.5266 12.002 81.5166C12.342 83.9866 14.492 90.7366 16.772 96.5166C19.062 102.287 21.742 110.387 22.742 114.517C23.732 118.637 24.872 124.267 25.262 127.017C25.662 129.767 25.702 138.877 25.352 147.267C24.972 156.347 24.322 162.517 23.722 162.517C23.172 162.517 22.112 161.057 21.362 159.267C20.622 157.477 19.682 153.987 19.282 151.517C18.882 149.037 17.662 143.867 16.572 140.017C15.472 136.167 13.762 130.767 12.762 128.017C11.752 125.267 9.27198 118.737 7.24198 113.517C5.20198 108.287 3.12198 101.987 2.61198 99.5166C2.11198 97.0366 1.20197 92.3166 0.591972 89.0166C-0.308028 84.1066 -0.218023 81.8866 1.11198 76.7666C1.99198 73.3266 2.72198 69.5066 2.71198 68.2666C2.71198 67.0266 4.20198 62.8666 6.02198 59.0166C8.04198 54.7566 10.692 50.9566 12.782 49.3166C14.672 47.8266 18.922 45.5166 22.222 44.1766C25.522 42.8366 30.242 41.4366 32.722 41.0566C35.192 40.6866 38.682 39.9566 40.472 39.4466C42.742 38.7966 43.722 37.9166 43.722 36.5166C43.722 35.0866 42.222 33.8066 38.472 32.0266C35.582 30.6566 30.972 29.2266 23.222 28.1466L16.482 34.5866C10.492 40.2966 9.66198 40.7966 9.08198 39.0166C8.72198 37.9166 8.73198 34.3166 9.11198 31.0166C9.49198 27.7166 10.672 22.3166 11.722 19.0166C12.942 15.2266 15.222 11.2067 17.932 8.09665Z" fill="#030203"/>
</svg>
