<svg width="130" height="164" viewBox="0 0 130 164" fill="none" xmlns="http://www.w3.org/2000/svg">
<path d="M41.7414 13.0627C42.9014 9.35274 44.5615 4.80276 45.4115 2.95276C46.8115 -0.067241 47.2615 -0.337314 50.0415 0.252686C51.7315 0.612686 55.5615 2.34278 58.5315 4.10278C61.5115 5.87278 64.8415 8.66274 65.9315 10.3127C67.4615 12.6327 67.7814 14.3327 67.3414 17.8127C67.0314 20.2827 66.1514 25.0127 65.3814 28.3127C64.6115 31.6127 63.6615 35.2127 63.2615 36.3127C62.8515 37.4127 61.6915 39.8927 60.6815 41.8127C59.6615 43.7327 58.0014 45.4627 56.9814 45.6527C55.9614 45.8327 53.3214 44.9827 51.1214 43.7527C48.9214 42.5227 46.2815 40.7927 45.2615 39.9127C44.2415 39.0327 42.5615 36.6227 41.5115 34.5627C40.3415 32.2327 39.6214 28.7227 39.6214 25.3127C39.6214 22.2827 40.5714 16.7727 41.7414 13.0627Z" fill="#030203"/>
<path d="M100.701 61.8127C101.861 57.1427 103.681 51.6227 104.731 49.5627C105.791 47.5027 107.321 45.8127 108.141 45.8127C108.951 45.8127 110.681 47.2727 111.971 49.0627C113.251 50.8527 116.561 56.8127 119.311 62.3127C122.061 67.8127 124.791 73.6627 125.381 75.3127C125.971 76.9627 127.232 82.5927 128.182 87.8127C129.801 96.6927 129.811 97.7527 128.271 104.063C127.361 107.773 126.621 112.393 126.621 114.313C126.621 116.233 126.211 118.603 125.711 119.563C125.211 120.523 124.011 123.563 123.051 126.313C122.081 129.063 120.161 133.113 118.781 135.313C117.401 137.513 113.991 141.693 111.201 144.603C108.401 147.503 105.781 149.873 105.371 149.853C104.961 149.833 103.381 150.643 101.871 151.663C100.361 152.673 95.7414 154.653 91.6214 156.043C87.4914 157.443 82.0914 159.073 79.6214 159.673C77.1414 160.273 70.3914 161.513 64.6214 162.433C57.0614 163.623 50.9014 163.933 42.6214 163.523C36.2914 163.203 29.0914 162.303 26.6214 161.523C24.1414 160.733 20.5414 159.293 18.6214 158.323C16.6914 157.353 13.3214 155.113 11.1214 153.333C8.92144 151.563 5.90148 147.903 4.41148 145.213C2.92148 142.513 1.20142 137.613 0.601421 134.313C-0.188579 130.003 -0.198618 125.703 0.561382 119.063C1.14138 113.973 2.03147 108.803 2.53147 107.563C3.03147 106.323 4.22149 102.613 5.17149 99.3127C6.13149 96.0127 7.9414 91.2827 9.2014 88.8127C10.4614 86.3427 12.5414 83.1428 13.8114 81.7228C15.0814 80.2928 17.1314 78.6028 18.3714 77.9728C19.6114 77.3328 21.5214 76.8127 22.6214 76.8127C23.7214 76.8127 24.8414 77.2627 25.1214 77.8127C25.3914 78.3627 24.1314 80.7227 22.3114 83.0627C20.4914 85.4027 17.8014 89.3427 16.3214 91.8127C14.8514 94.2927 13.3914 98.5627 13.0814 101.313C12.5914 105.653 12.9214 107.013 15.5714 111.563C17.9714 115.693 19.8514 117.463 24.3714 119.873C27.5314 121.553 32.5914 123.583 35.6214 124.383C39.2614 125.333 46.2614 125.823 56.3714 125.823C67.3514 125.813 74.4914 125.263 81.8714 123.853C87.5114 122.773 95.8914 120.413 100.501 118.603C105.121 116.793 110.161 114.183 114.541 110.313L106.581 94.5627C100.381 82.3027 98.6214 77.8727 98.6114 74.5627C98.6014 72.2227 99.5414 66.4827 100.701 61.8127Z" fill="#030203"/>
</svg>
