<svg width="121" height="156" viewBox="0 0 121 156" fill="none" xmlns="http://www.w3.org/2000/svg">
<path fill-rule="evenodd" clip-rule="evenodd" d="M81.3921 39.6C79.1921 40.41 75.2321 43.1901 72.6021 45.7801C69.9621 48.3801 66.702 52.75 65.362 55.5C64.022 58.25 62.0121 64.1 60.8921 68.5C59.7821 72.9 58.8621 78.97 58.8521 82C58.8521 85.02 59.5721 89.3 60.4621 91.5C61.3521 93.7 63.052 96.5201 64.242 97.7801C66.192 99.8401 67.2921 100.05 75.8921 100.03C82.6021 100.02 87.1521 99.44 91.3921 98.05C96.4921 96.38 98.2521 95.1 103.142 89.54C106.302 85.94 109.342 83 109.892 83C110.472 83 110.762 85.21 110.582 88.25C110.402 91.27 109.132 95.94 107.582 99.25C106.102 102.41 102.752 107.3 100.142 110.1C97.5321 112.91 92.6921 116.72 89.3921 118.58C86.0921 120.43 81.8121 122.44 79.8921 123.04C77.9621 123.63 74.1421 124.78 71.3921 125.58C68.6421 126.38 62.1121 127.31 56.8921 127.66C50.9921 128.04 44.7421 127.81 40.3921 127.05C36.5421 126.38 30.4621 124.63 26.8921 123.18C22.5721 121.41 18.6921 118.85 15.3321 115.51C11.5521 111.77 9.93206 109.23 8.94206 105.5C7.91206 101.61 7.8621 99.28 8.7321 95C9.3421 91.97 11.4721 86.12 13.4621 82C16.0221 76.72 16.7721 74.2 16.0121 73.5C15.2921 72.82 14.3621 73.0301 13.1621 74.1501C12.1921 75.0501 9.70206 79.3301 7.63206 83.6501C5.41206 88.3001 3.03205 95.58 1.81205 101.5C0.252052 109.01 -0.177948 114.24 0.0620522 122.5C0.342052 131.83 0.772069 134.26 2.89207 138.5C5.18207 143.08 6.15207 143.89 14.3921 148.06C20.8021 151.3 26.1321 153.15 32.8921 154.46C39.9521 155.83 44.7021 156.15 51.3921 155.7C56.3421 155.37 63.6521 154.18 67.6421 153.05C71.6321 151.92 77.4821 149.68 80.6421 148.07C83.8021 146.46 88.9521 143.19 92.0821 140.82C95.2221 138.44 99.6721 133.8 101.982 130.5C104.292 127.2 107.722 120.9 109.612 116.5C111.502 112.1 114.382 103.33 116.022 97C117.662 90.67 119.452 81.9 120.012 77.5C120.872 70.81 120.752 68.44 119.312 63C118.362 59.42 115.972 54.0601 113.992 51.0801C112.012 48.1001 109.042 44.6401 107.392 43.3901C105.742 42.1401 102.702 40.4201 100.642 39.5601C98.5821 38.7001 94.3021 38.0301 91.1421 38.0701C87.9821 38.1101 83.5921 38.8 81.3921 39.6ZM86.5727 56.4322C79.2165 56.4322 77.0303 58.0479 74.1495 65.7537C72.1562 71.0979 71.0244 77.2708 71.5003 80.2537C72.079 83.7751 75.8471 85.4322 83.2804 85.4322C89.2863 85.4322 95.6522 83.568 97.427 81.2894C99.1889 79.0108 100.642 74.3708 100.642 70.9322C100.642 67.4937 99.4846 62.8537 98.07 60.5751C96.6553 58.2965 91.4854 56.4322 86.5727 56.4322Z" fill="#030203"/>
<path d="M74.0417 3.75C73.0117 5.81 71.2017 10.31 70.0317 13.75C68.2017 19.09 68.0717 20.4 69.1517 22.75C69.9217 24.43 72.5417 26.62 75.9017 28.39C79.5317 30.31 81.8417 30.99 82.7217 30.39C83.4517 29.9 84.9117 27.02 85.9717 24C87.0317 20.97 87.9017 16.14 87.9017 13.25C87.8917 10.36 87.5517 7.27001 87.1417 6.39001C86.7317 5.50001 84.2517 3.70001 81.6417 2.39001C79.0317 1.07001 76.6717 0 76.4117 0C76.1417 0 75.0817 1.69 74.0417 3.75Z" fill="#030203"/>
<path d="M97.0599 3.75C96.0299 5.81 94.2199 10.31 93.0499 13.75C91.2199 19.09 91.0899 20.4 92.1699 22.75C92.9399 24.43 95.5599 26.62 98.9199 28.39C102.55 30.31 104.86 30.99 105.74 30.39C106.47 29.9 107.93 27.02 108.99 24C110.05 20.97 110.92 16.14 110.92 13.25C110.91 10.36 110.57 7.27001 110.16 6.39001C109.75 5.50001 107.27 3.70001 104.66 2.39001C102.05 1.07001 99.6899 0 99.4299 0C99.1599 0 98.0999 1.69 97.0599 3.75Z" fill="#030203"/>
</svg>
