<svg width="105" height="152" viewBox="0 0 105 152" fill="none" xmlns="http://www.w3.org/2000/svg">
<path d="M66.2052 5.73824C66.4352 4.49824 67.5351 2.57825 68.6552 1.46825C70.3652 -0.231746 71.0552 -0.371752 72.9052 0.618248C74.1252 1.26825 77.5952 3.46824 80.6152 5.51824C83.6352 7.56824 87.5252 10.9882 89.2452 13.1182C90.9652 15.2482 94.1952 20.3582 96.4152 24.4882C98.6352 28.6082 101.395 34.9182 102.545 38.4882C104.275 43.8482 104.635 47.4882 104.625 59.2382C104.615 69.8782 104.095 75.8282 102.565 82.7382C101.445 87.8282 99.8252 94.4682 98.9852 97.4882C98.1352 100.508 96.7652 104.788 95.9452 106.988C95.1152 109.188 93.3552 113.238 92.0452 115.988C90.7252 118.738 87.7352 123.898 85.3852 127.468C82.6052 131.678 78.6752 135.808 74.1152 139.278C70.2652 142.218 63.9652 146.168 60.1152 148.058C56.1552 150.008 51.5952 151.498 49.6152 151.488C47.6952 151.488 41.6152 150.398 36.1152 149.068C30.6152 147.738 22.5152 145.238 18.1152 143.498C13.7152 141.768 8.20518 139.248 5.86518 137.918C3.52518 136.578 1.16518 134.588 0.615176 133.488C0.0651762 132.388 -0.154824 130.808 0.115176 129.988C0.485176 128.888 2.14518 128.488 6.36518 128.478C9.52518 128.478 15.0352 128.038 18.6152 127.498C22.1952 126.958 27.5952 125.998 30.6152 125.368C33.6352 124.728 39.4852 123.088 43.6152 121.718C47.7352 120.348 53.1352 118.348 55.6152 117.268C58.0952 116.198 63.8852 113.438 68.4952 111.148C74.1252 108.358 78.4252 105.348 81.5752 101.988C84.1852 99.2082 88.2352 93.0182 90.6852 88.0583C94.2452 80.8883 95.1052 78.1283 95.0452 74.0583C94.9852 70.2383 93.9452 66.8882 90.8252 60.4882C88.5352 55.8082 84.5152 49.5583 81.8952 46.5882C79.2652 43.6082 74.7552 39.6683 71.8652 37.8382C68.6352 35.7782 65.8752 33.0382 64.6852 30.7382C62.8452 27.1582 62.8251 26.5582 64.2751 17.4882C65.1151 12.2582 65.9852 6.97824 66.2052 5.73824Z" fill="#030203"/>
</svg>
