<svg width="180" height="127" viewBox="0 0 180 127" fill="none" xmlns="http://www.w3.org/2000/svg">
<path fill-rule="evenodd" clip-rule="evenodd" d="M154.469 1.02274C151.719 1.70274 146.539 3.66272 142.969 5.38272C137.809 7.86272 134.329 10.7528 126.099 19.3628C120.399 25.3328 114.459 32.4627 112.909 35.2127C111.359 37.9627 109.049 41.2628 107.779 42.5428C105.739 44.5928 105.179 44.7228 102.969 43.6028C101.589 42.9128 97.7691 39.8027 94.4691 36.6927C91.1691 33.5927 87.3391 30.6927 85.9691 30.2627C83.9091 29.6127 83.0791 29.9727 81.2391 32.3427C80.0091 33.9227 78.0991 38.2527 76.9891 41.9627C75.8791 45.6727 74.9691 49.5027 74.9591 50.4627C74.9591 51.4227 75.669 55.3627 76.539 59.2127C77.409 63.0627 78.7491 68.2327 79.5191 70.7127C80.2891 73.1927 80.9391 78.9227 80.9491 83.4627C80.9691 91.1427 80.7791 91.9028 78.2191 94.4828C76.2091 96.5028 73.4391 97.6927 67.9691 98.9027C63.8391 99.8127 57.7691 101.043 54.4691 101.633C51.1691 102.223 46.5591 102.703 44.2191 102.703C41.8791 102.713 36.9291 101.993 33.2191 101.123C29.5091 100.243 24.8891 98.7228 22.9691 97.7328C21.0391 96.7528 17.6391 93.9827 15.3991 91.5827C13.1591 89.1827 10.7991 85.5227 10.1491 83.4627C9.49913 81.4027 9.2591 78.7027 9.6191 77.4627C9.9691 76.2227 12.0391 71.3827 14.2191 66.7127C16.3991 62.0427 20.3991 54.8327 23.1091 50.7127C25.8091 46.5827 28.0191 43.1027 27.9991 42.9627C27.9791 42.8227 27.4091 42.7228 26.7191 42.7428C26.0291 42.7628 24.549 43.5528 23.429 44.4928C22.309 45.4428 19.5691 48.6927 17.3291 51.7127C15.0991 54.7327 11.769 59.9127 9.92904 63.2127C8.08904 66.5127 5.29908 73.0427 3.71908 77.7127C2.03908 82.6627 0.589087 89.5527 0.229087 94.2127C-0.260913 100.573 -0.0109622 103.243 1.42904 107.213C2.41904 109.963 4.22906 113.563 5.44906 115.213C6.65906 116.863 10.309 119.613 13.559 121.323C16.809 123.033 22.1691 125.003 25.4691 125.683C29.1691 126.453 34.9191 126.713 40.4691 126.373C45.4191 126.063 51.7191 125.403 54.4691 124.893C57.2191 124.393 62.3891 122.613 65.9691 120.933C69.5391 119.263 74.2891 116.163 76.4991 114.053C78.7191 111.943 81.7091 107.733 83.1291 104.713C84.5591 101.693 86.6391 96.5127 87.7491 93.2127C88.8691 89.9127 90.9491 83.2727 92.3691 78.4627C94.8191 70.2227 95.1291 69.7127 97.7191 69.6927C99.2291 69.6827 102.489 70.3627 104.969 71.2127C107.439 72.0627 111.829 72.7428 114.719 72.7328C117.609 72.7228 124.359 71.5628 129.719 70.1628C135.079 68.7528 143.289 65.7228 147.969 63.4228C152.829 61.0328 158.769 57.1028 161.839 54.2328C164.789 51.4728 168.459 47.4127 169.979 45.2127C171.509 43.0127 173.909 38.2927 175.319 34.7127C176.729 31.1327 178.359 25.5127 178.929 22.2127C179.779 17.4227 179.679 15.1527 178.479 10.9627C177.229 6.60274 176.249 5.25277 172.719 2.99277C170.009 1.25277 166.839 0.172736 163.969 0.0227357C161.489 -0.107264 157.219 0.332736 154.469 1.02274ZM154.469 24.1827C150.619 23.9727 146.119 24.1527 144.469 24.5927C142.819 25.0227 139.889 26.1927 137.969 27.1927C136.039 28.1927 131.089 31.5928 126.969 34.7428C122.839 37.9028 116.969 43.0827 116.969 43.0827C116.969 43.0827 114.749 45.5127 115.219 47.1927C115.719 48.9804 116.813 48.9192 118.963 48.7987C119.614 48.7623 120.362 48.7204 121.219 48.7227C124.109 48.7327 131.189 47.5828 136.969 46.1628C142.739 44.7428 150.619 42.0828 154.469 40.2428C158.319 38.3928 162.709 35.7228 164.219 34.3028C165.729 32.8728 166.859 30.9727 166.719 30.0727C166.579 29.1627 165.339 27.5528 163.969 26.4928C162.209 25.1328 159.409 24.4527 154.469 24.1827Z" fill="#030203"/>
</svg>
