<svg width="176" height="142" viewBox="0 0 176 142" fill="none" xmlns="http://www.w3.org/2000/svg">
<path d="M154.926 9.38299C156.116 5.80299 157.726 2.11298 158.506 1.16298C159.476 0.00298381 160.466 -0.287021 161.596 0.282979C162.506 0.742979 164.996 3.08298 167.126 5.50298C169.256 7.91298 172.066 12.243 173.376 15.133C174.686 18.023 175.756 21.953 175.756 23.883C175.756 25.803 174.816 30.873 173.676 35.133C172.536 39.393 170.416 45.363 168.966 48.383C167.516 51.403 164.726 55.453 162.776 57.383C160.606 59.513 157.266 61.433 154.236 62.303C151.496 63.083 147.456 63.693 145.256 63.653C143.056 63.623 139.566 62.873 137.506 61.993C135.446 61.103 132.066 58.573 130.006 56.353C127.946 54.133 125.916 52.333 125.506 52.353C125.096 52.373 123.966 54.073 123.006 56.133C121.686 58.953 119.896 60.573 115.756 62.653C112.736 64.173 108.656 65.403 106.706 65.403C104.756 65.393 102.606 65.943 101.936 66.633C101.266 67.323 100.726 69.793 100.736 72.133C100.746 74.473 100.276 77.623 99.6962 79.133C99.1162 80.643 98.0462 84.583 97.3162 87.883C96.5862 91.183 95.1362 96.133 94.0762 98.883C93.0262 101.633 89.9362 107.253 87.2162 111.383C84.4962 115.503 79.7862 121.373 76.7562 124.423C73.7362 127.463 68.1062 131.723 64.2562 133.873C60.4062 136.023 54.6662 138.593 51.5062 139.583C47.5762 140.813 42.5062 141.393 35.5062 141.413C25.7862 141.433 24.8762 141.253 18.0062 137.913C13.6562 135.793 9.7862 133.083 8.3162 131.133C6.9862 129.343 4.7362 125.403 3.3262 122.383C1.9162 119.363 0.486202 115.313 0.126202 113.383C-0.273798 111.163 0.286197 106.593 1.6762 100.883C2.8762 95.933 4.3562 90.533 4.9662 88.883C5.5762 87.233 7.6262 82.733 9.5162 78.883C11.4162 75.033 14.3862 69.953 16.1162 67.603C17.8462 65.253 19.8162 63.343 20.5062 63.353C21.1962 63.373 21.7562 64.283 21.7562 65.383C21.7562 66.483 20.5062 69.743 18.9762 72.633C17.4462 75.523 15.4262 80.133 14.4762 82.883C13.5262 85.633 12.7462 89.903 12.7462 92.383C12.7462 95.523 13.5062 98.023 15.2562 100.633C16.6262 102.693 19.6662 105.653 22.0062 107.213C24.3462 108.763 28.1662 110.793 30.5062 111.713C33.1362 112.743 37.6062 113.383 42.2562 113.383C47.5662 113.383 51.5762 112.723 56.0062 111.103C59.4462 109.853 65.4062 107.053 69.2562 104.893C73.1062 102.743 78.0162 99.373 80.1662 97.423C82.3162 95.483 85.6362 91.403 87.5462 88.383C90.5362 83.643 90.9362 82.263 90.5062 78.383C90.2262 75.903 88.1462 68.593 85.8762 62.133C83.6162 55.673 81.7862 48.923 81.8162 47.133C81.8462 45.343 82.6562 40.953 83.6062 37.383C84.5662 33.803 86.1162 29.423 87.0562 27.633C87.9862 25.843 89.0962 24.373 89.5062 24.363C89.9162 24.353 91.8362 25.973 93.7562 27.963C95.6862 29.953 99.5062 32.883 102.256 34.473C105.326 36.253 108.706 37.363 111.006 37.373C113.066 37.383 116.446 36.523 118.506 35.483C120.566 34.433 123.216 32.523 124.396 31.233C125.566 29.943 127.486 26.973 128.646 24.633C129.806 22.293 131.436 20.383 132.256 20.383C133.086 20.383 134.826 22.073 136.146 24.133C137.456 26.193 139.816 29.133 141.396 30.653C143.116 32.323 145.846 33.673 148.256 34.043C150.456 34.373 153.496 34.363 155.006 34.013C156.516 33.673 157.756 32.933 157.756 32.383C157.756 31.833 156.646 29.923 155.286 28.133C153.516 25.803 152.806 23.613 152.796 20.383C152.786 17.903 153.746 12.953 154.926 9.38299Z" fill="#030203"/>
</svg>
