<svg width="134" height="161" viewBox="0 0 134 161" fill="none" xmlns="http://www.w3.org/2000/svg">
<path d="M88 4.74998C89.09 2.40998 90.43 0.27 90.98 0C94.7715 2.24998 96.9 3.38998 97.84 5.24998C98.47 6.48998 98.99 9.85998 99 12.75C99.02 15.84 98.2 19.95 97 22.75C95.89 25.36 94.53 27.5 93.98 27.5C93.43 27.5 91.4 25.92 89.48 24C86.28 20.8 85.98 20 86 14.75C86.02 11.16 86.77 7.39998 88 4.74998Z" fill="#030203"/>
<path d="M121.74 55.2028C120.94 56.4728 119.7 60.8828 118.99 65.0128C117.85 71.6728 117.89 72.8227 119.35 75.2627C120.26 76.7727 120.77 78.4627 120.5 79.0127C120.22 79.5627 118.54 80.0127 116.75 80.0227C114.96 80.0227 112.37 79.2627 111 78.3127C109.62 77.3727 107.91 75.9127 107.2 75.0627C106.48 74.2127 105.24 72.0527 104.45 70.2627C103.65 68.4727 102.55 67.0127 102 67.0127C101.45 67.0127 100.31 68.0227 99.48 69.2627C98.64 70.5027 97.62 73.2727 97.23 75.4227C96.83 77.5727 95.49 80.3827 94.25 81.6727C92.5 83.4927 90.95 84.0027 87.25 83.9827C82.84 83.9527 82.18 83.5927 78 78.9827C75.52 76.2527 72.83 74.0127 72.02 74.0127C71.21 74.0127 70.2 74.5727 69.78 75.2627C69.36 75.9527 68.31 79.8827 67.45 84.0127C65.9 91.4127 65.91 91.6127 68.41 99.0127C69.81 103.133 71.21 108.533 71.53 111.013C71.99 114.633 71.66 116.233 69.8 119.213C68.54 121.243 64.8 124.983 61.5 127.513C58.2 130.053 53.14 132.993 50.25 134.063C47.36 135.133 44.1 136.013 43 136.013C41.9 136.013 39.09 136.543 36.75 137.193C33.39 138.123 31.25 138.093 26.5 137.023C23.2 136.283 19.37 135.123 18 134.443C16.62 133.763 14.54 132.143 13.36 130.863C12.18 129.573 10.27 126.493 9.09998 124.013C7.92998 121.533 6.99001 118.613 7.01001 117.513C7.03001 116.413 8.17996 112.363 9.57996 108.513C10.98 104.663 13.2201 99.6027 14.5601 97.2627C15.9001 94.9227 17 92.7827 17 92.5127C17 92.2427 16.14 92.0127 15.09 92.0127C14.01 92.0127 12.08 93.6327 10.63 95.7627C9.23 97.8227 7.34997 101.533 6.46997 104.013C5.57997 106.493 3.76005 112.223 2.43005 116.763C0.750054 122.473 0 127.483 0 133.013C0 139.493 0.460044 141.912 2.42004 145.762C3.74004 148.372 6.78004 152.432 9.17004 154.772C13.02 158.562 14.25 159.152 20.25 160.022C24.42 160.632 29.58 160.672 33.75 160.122C37.46 159.632 42.75 158.372 45.5 157.322C48.25 156.272 53.2 153.592 56.5 151.372C59.8 149.152 64.2 145.342 66.28 142.922C68.36 140.492 71.47 135.133 73.2 131.013C74.93 126.883 76.71 121.033 77.16 118.013C77.69 114.443 78.77 111.713 80.24 110.233C81.48 108.983 83.06 107.973 83.75 107.983C84.44 108.003 88.15 105.093 92 101.513L99 95.0127C106.75 101.993 110.01 104.283 111.25 104.603C112.57 104.953 115.16 104.383 117.5 103.233C119.7 102.153 122.88 99.7527 124.56 97.8927C126.52 95.7327 128.6 91.4327 130.33 86.0127C131.81 81.3427 133.02 75.2627 133.01 72.5127C133 69.7627 132.56 65.9328 132.04 64.0128C131.51 62.0928 130.03 58.9328 128.75 57.0128C127.47 55.0928 125.69 53.3728 124.8 53.2028C123.92 53.0328 122.54 53.9328 121.74 55.2028Z" fill="#030203"/>
<path d="M86 27.5129C85.45 27.7829 84.11 29.9229 83.02 32.2629C81.79 34.9129 81.04 38.6729 81.02 42.2629C81 47.5129 81.3 48.3128 84.5 51.5128C86.42 53.4328 88.45 55.0128 89 55.0128C89.55 55.0128 90.91 52.8728 92.02 50.2628C93.22 47.4628 94.04 43.3529 94.02 40.2629C94.01 37.3729 93.49 34.0028 92.86 32.7628C91.92 30.9028 89.7915 29.7629 86 27.5129Z" fill="#030203"/>
<path d="M100.52 24.0129C99.68 25.6629 98.55 29.4929 98 32.5129C97.22 36.7829 97.31 38.6329 98.37 40.7629C99.13 42.2729 101.38 44.9728 103.37 46.7628C105.37 48.5528 107.67 49.7828 108.5 49.5128C109.33 49.2428 110.2 48.2228 110.44 47.2628C110.69 46.3028 111.63 42.8129 112.54 39.5129C113.52 35.9429 113.95 31.9928 113.59 29.7628C113.1 26.6728 112.25 25.5729 108.75 23.5329C106.41 22.1729 103.95 21.0429 103.27 21.0329C102.59 21.0229 101.36 22.3629 100.52 24.0129Z" fill="#030203"/>
</svg>
