<svg width="203" height="137" viewBox="0 0 203 137" fill="none" xmlns="http://www.w3.org/2000/svg">
<path d="M95.6625 4.48005C96.4925 2.83005 97.6825 1.15004 98.2925 0.750044C98.9025 0.340044 99.7425 4.38928e-05 100.153 4.38928e-05C100.563 -0.00995611 103.043 1.69005 105.653 3.77005C108.263 5.85005 111.193 8.67005 112.163 10.02C113.213 11.49 113.923 14.29 113.923 16.98C113.923 19.45 113.002 25.08 111.872 29.48C110.732 33.88 109.043 38.96 108.103 40.77C107.173 42.58 105.733 44.27 104.903 44.52C104.053 44.79 101.253 42.96 98.4025 40.27C95.6525 37.68 92.6225 34.41 91.6625 33.0201C90.7025 31.6201 89.9125 28.79 89.9125 26.73C89.9025 24.67 90.8525 19.49 92.0225 15.23C93.1825 10.97 94.8225 6.13005 95.6625 4.48005Z" fill="#030203"/>
<path d="M70.1725 16.98C71.3625 13.4 72.9225 9.93005 73.6225 9.27005C74.5225 8.42005 75.6525 8.34005 77.4025 9.02005C78.7825 9.55005 81.2625 10.99 82.9125 12.23C84.5725 13.47 86.4425 15.83 87.0625 17.48C87.9625 19.84 87.8325 22.39 86.4925 29.48C85.5625 34.43 84.1025 40.5101 83.2625 42.9801C82.4225 45.4501 81.3225 48.2701 80.8225 49.2301C80.3125 50.1901 79.2325 50.9801 78.4025 50.9801C77.5725 50.9801 74.8525 49.0701 72.3425 46.7301C69.6025 44.1801 67.4025 41.0801 66.8425 38.9801C66.2525 36.7501 66.2925 33.31 66.9625 29.48C67.5325 26.18 68.9825 20.55 70.1725 16.98Z" fill="#030203"/>
<path d="M174.372 44.9801C175.342 43.0501 177.233 40.0101 178.583 38.2201C180.603 35.5201 181.353 35.14 182.963 35.9701C184.033 36.5301 187.263 39.8601 190.153 43.3901C193.043 46.9101 196.983 52.4101 198.903 55.6101C202.263 61.1901 202.392 61.7701 202.232 70.4501C202.122 76.51 201.453 81.12 200.183 84.48C199.153 87.23 196.543 92.6301 194.403 96.48C192.253 100.33 188.453 105.45 185.953 107.85C183.253 110.45 177.753 113.95 172.403 116.48C167.453 118.82 159.123 122.12 153.903 123.82C148.683 125.52 141.253 127.59 137.403 128.42C133.553 129.25 126.353 130.59 121.403 131.39C116.453 132.2 106.103 133.61 98.4025 134.53C90.7025 135.45 77.2025 136.23 68.4025 136.27C59.6025 136.31 49.0225 135.77 44.9025 135.08C40.7725 134.39 34.0225 132.91 29.9025 131.79C25.7725 130.66 19.7025 128.37 16.4025 126.7C13.1025 125.02 8.26251 121.48 5.65251 118.82C2.33251 115.43 0.7125 112.85 0.2625 110.23C-0.0875 108.17 -0.0875 103.22 0.2625 99.23C0.6125 95.24 1.85251 88.4901 3.02251 84.23C4.19251 79.97 6.7225 73.33 8.6425 69.48C10.5725 65.6301 13.6625 60.3401 15.5225 57.7301C17.3825 55.1201 19.3525 52.9801 19.9025 52.9801C20.4525 52.9801 20.9025 53.6601 20.9025 54.4801C20.9025 55.3001 19.3225 59.2401 17.3925 63.2301C15.2125 67.7401 13.8825 71.9901 13.8625 74.48C13.8525 77.18 14.7125 79.7801 16.5125 82.48C17.9825 84.68 19.9125 87.06 20.7925 87.77C21.6825 88.48 23.9825 90.0901 25.9025 91.3601C27.8225 92.6301 32.3225 94.82 35.9025 96.23C39.4825 97.65 46.4525 99.6 51.4025 100.57C58.0425 101.88 65.3825 102.35 79.4025 102.37C91.8025 102.38 103.093 101.79 111.903 100.65C119.323 99.69 132.043 97.5701 140.153 95.9401C148.263 94.3101 160.633 91.07 167.643 88.73C175.633 86.07 180.513 83.9201 180.713 82.98C180.893 82.16 178.302 78.22 174.972 74.23C169.932 68.2101 168.902 66.34 168.882 63.2301C168.882 61.1701 169.712 57.0001 170.742 53.9801C171.772 50.9501 173.402 46.9101 174.372 44.9801Z" fill="#030203"/>
</svg>
