<svg width="186" height="154" viewBox="0 0 186 154" fill="none" xmlns="http://www.w3.org/2000/svg">
<path d="M61.1704 8.25C61.8304 6.74 63.2104 4.26 64.2304 2.75C65.2504 1.24 66.2904 0 66.5304 0C66.7704 0 68.4304 0.730003 70.2204 1.62C72.0104 2.51 74.9304 4.31 76.7204 5.62C79.5004 7.66 79.9704 8.61 79.9704 12.25C79.9704 14.59 78.9204 20.32 77.6404 25C76.3604 29.67 74.6704 34.8 73.8904 36.39C73.1104 37.98 72.1004 39.33 71.6404 39.39C71.1804 39.45 68.1204 37.92 64.8304 36C60.7804 33.63 58.6604 31.7 58.2404 30C57.9104 28.62 58.1604 23.79 58.8004 19.25C59.4404 14.71 60.5104 9.76 61.1704 8.25Z" fill="#030203"/>
<path d="M79.0004 46C79.5404 43.52 80.9704 38.91 82.1604 35.75C83.7104 31.66 84.8604 30 86.1504 30C87.1504 30 90.7804 32.16 100.47 39.59L100.27 46.04C100.16 49.59 99.0904 56.1 97.8904 60.5C96.6904 64.9 95.2104 69.29 94.5904 70.25C93.9704 71.22 92.8004 72.02 91.9704 72.04C91.1404 72.06 88.2704 70.14 85.5904 67.78C82.9004 65.43 80.0904 62.26 79.3404 60.75C78.5804 59.24 77.9804 56.31 77.9904 54.25C78.0104 52.19 78.4604 48.47 79.0004 46Z" fill="#030203"/>
<path d="M54.3404 55.5C55.2304 51.1 56.7104 45.58 57.6304 43.23C59.0404 39.65 59.6404 39.07 61.3904 39.61C62.5304 39.97 65.6104 41.33 68.2204 42.63C70.8304 43.93 73.0804 45.46 73.2204 46.03C73.3604 46.6 73.1404 50.99 72.7304 55.78C72.3204 60.58 71.2404 66.75 70.3304 69.5C69.4104 72.25 67.9404 75.5 67.0704 76.72C66.1904 77.94 64.8004 78.95 63.9704 78.96C63.1404 78.97 60.5604 77.18 58.2204 74.99C55.2104 72.16 53.7904 69.91 53.3504 67.25C53.0004 65.14 53.4304 60.01 54.3404 55.5Z" fill="#030203"/>
<path d="M159.96 57.5C161.11 54.2 162.71 50.49 163.53 49.25C164.34 48.01 165.34 47 165.74 47C166.14 47.01 167.82 47.82 169.47 48.82C171.12 49.81 174.12 52.62 176.14 55.06C178.15 57.5 181.05 61.97 182.59 65C184.4 68.59 185.52 72.58 185.79 76.5C186.03 79.91 185.48 86.16 184.51 91C183.58 95.68 181.51 102.65 179.92 106.5C178.33 110.35 175.52 115.3 173.67 117.5C171.82 119.7 167.87 123.29 164.89 125.48C161.91 127.68 155.2 131.33 149.97 133.6C144.74 135.87 136.42 139.12 131.47 140.82C126.52 142.53 118.2 145.02 112.97 146.37C107.74 147.72 98.3004 149.86 91.9704 151.12C82.2504 153.07 77.2904 153.43 59.9704 153.45C42.2404 153.47 38.3904 153.19 31.4704 151.36C27.0704 150.2 20.8304 147.95 17.6004 146.37C14.3804 144.79 9.9404 141.7 7.7304 139.5C5.5304 137.3 2.89041 133.7 1.87041 131.5C0.500413 128.55 0.0104182 125.14 0.000418159 118.5C-0.0195818 113.55 0.680406 105.45 1.55041 100.5C2.41041 95.55 4.55041 88.13 6.30041 84.02C8.09041 79.79 11.2804 74.58 13.6404 72.02C16.6004 68.81 18.1504 67.79 18.9804 68.5C19.8604 69.24 19.1904 71.29 16.3504 76.5C14.2604 80.35 12.0504 85.75 11.4304 88.5C10.6204 92.11 10.6104 94.6 11.3904 97.46C11.9804 99.64 14.3204 103.46 16.5804 105.96C18.8404 108.46 22.8904 111.7 25.5804 113.17C28.2704 114.63 33.3904 116.59 36.9704 117.52C40.5504 118.45 48.6404 119.54 54.9704 119.95C61.3004 120.35 71.8704 120.34 78.4704 119.92C85.0704 119.51 95.6404 118.24 101.97 117.11C108.3 115.98 119.55 113.24 126.97 111.01C134.39 108.79 143.39 105.83 146.97 104.44C150.55 103.05 156.84 100.21 160.97 98.13C165.92 95.62 168.56 93.69 168.74 92.42C168.9 91.27 166.53 87.47 156.72 75.5L157.3 69.5C157.62 66.2 158.81 60.8 159.96 57.5Z" fill="#030203"/>
</svg>
