<svg width="172" height="160" viewBox="0 0 172 160" fill="none" xmlns="http://www.w3.org/2000/svg">
<path fill-rule="evenodd" clip-rule="evenodd" d="M140 0.304032C138.62 0.594032 135.14 1.90395 132.25 3.22395C129.36 4.55395 125.35 7.09399 123.32 8.88399C121.08 10.864 118.18 15.254 115.89 20.134C113.83 24.534 110.98 31.734 109.55 36.134C107.36 42.904 106.97 45.904 107.01 55.634C107.06 65.764 107.33 67.544 109.28 70.564C110.5 72.454 113.35 75.604 115.61 77.564C117.87 79.524 121.47 81.724 123.61 82.444C125.75 83.164 129.21 84.514 131.3 85.444C133.58 86.454 134.99 87.7139 134.8 88.5839C134.64 89.3839 132.89 91.1839 130.92 92.5839C128.95 93.9839 124 97.644 119.92 100.724C115.84 103.794 107.77 108.834 102 111.914C96.22 114.994 87.67 118.914 83 120.614C76.42 123.014 71.68 123.944 62 124.744C53.44 125.444 42.57 125.444 27.5 124.744C15.4 124.184 4.26 123.474 2.75 123.174C0.73 122.774 0 123.034 0 124.134C0 124.964 1.24 127.054 2.75 128.784C4.26 130.514 7.3 133.154 9.5 134.644C11.7 136.134 17.77 139.574 23 142.284C28.22 144.994 35.42 148.404 39 149.854C42.57 151.294 48.2 153.394 51.5 154.504C54.8 155.604 60.2 157.214 63.5 158.054C66.8 158.904 71.3 159.614 73.5 159.624C75.7 159.644 79.97 158.944 83 158.084C86.02 157.224 90.97 155.374 94 153.974C97.02 152.574 103.77 148.474 109 144.854C114.22 141.234 122.32 135.044 127 131.104C131.67 127.164 136.68 122.404 138.12 120.534C139.56 118.664 142.89 113.984 145.53 110.134C148.16 106.284 151.21 101.554 152.3 99.634C153.39 97.714 157.11 90.964 160.56 84.634C164.01 78.304 167.89 70.434 169.17 67.134C171.33 61.564 171.5 59.744 171.44 41.634C171.4 25.624 171.08 21.324 169.65 17.634C168.7 15.164 166.84 11.554 165.53 9.63399C164.22 7.71399 160.75 4.83397 157.82 3.24397C154.41 1.39397 150.7 0.253929 147.5 0.0739294C144.75 -0.0860706 141.37 0.0240319 140 0.304032ZM143.865 29.4812C140.28 28.7817 134.472 32.0322 130.92 36.6816C124.547 44.993 124.547 45.1578 131.119 53.428C134.77 58.0363 139.251 61.8213 141.077 61.8213C142.902 61.8213 147.383 57.9126 151.034 53.1809C156.245 46.4331 156.876 43.0591 154.022 37.6279C151.997 33.8014 147.449 30.1395 143.865 29.4812Z" fill="#030203"/>
</svg>
