<svg width="127" height="149" viewBox="0 0 127 149" fill="none" xmlns="http://www.w3.org/2000/svg">
<path fill-rule="evenodd" clip-rule="evenodd" d="M102.949 2.30264C98.5486 3.50264 93.5986 5.19265 91.9486 6.06265C90.2986 6.92265 86.9886 9.8226 84.5986 12.5126C82.1986 15.1926 79.1586 19.5326 77.8486 22.1426C76.5286 24.7526 75.4586 28.1326 75.4686 29.6426C75.4886 31.1526 74.8086 34.0826 73.9686 36.1426C73.1386 38.2026 72.4386 42.0326 72.4186 44.6426C72.3986 48.3126 73.0486 50.3026 75.2686 53.3926C76.8586 55.5926 79.0086 58.1326 80.0486 59.0426C81.0986 59.9426 85.0986 62.2526 88.9486 64.1726C92.7986 66.0926 97.6386 68.3926 99.6986 69.2826C102.249 70.3726 103.449 71.5326 103.449 72.8926C103.449 73.9926 102.659 75.2926 101.699 75.7926C100.739 76.2826 97.0186 77.3826 93.4486 78.2326C89.8686 79.0826 83.6886 80.4725 79.6986 81.3325C75.3086 82.2825 67.6186 82.8826 60.1986 82.8626C51.7586 82.8526 45.2986 82.2426 39.4486 80.9026C34.7686 79.8426 28.0786 77.4926 24.5786 75.6826C20.9086 73.7926 16.1386 70.1626 13.3286 67.1426C10.6486 64.2526 8.44863 61.3326 8.43863 60.6426C8.43863 59.9526 9.93864 56.2426 11.7786 52.3926C13.6186 48.5426 17.6786 42.4726 20.7886 38.8926C24.0786 35.1226 26.4486 31.4526 26.4486 30.1426C26.4486 28.9026 25.8886 27.8826 25.1986 27.8626C24.5086 27.8526 22.1486 29.1227 19.9486 30.7027C17.7486 32.2827 14.0386 35.6726 11.6986 38.2326C9.35863 40.7926 6.82863 44.1326 6.05863 45.6426C5.29863 47.1526 3.89863 50.6426 2.93863 53.3926C1.97863 56.1426 0.838636 62.4426 0.388636 67.3926C-0.0513638 72.3426 -0.13137 78.4226 0.21863 80.8926C0.74863 84.6126 1.89863 86.4926 6.89863 91.7626C10.2286 95.2726 14.9686 99.1526 17.4486 100.403C19.9186 101.643 23.7486 103.213 25.9486 103.883C28.1486 104.543 33.5486 105.663 37.9486 106.373C42.6286 107.113 51.3386 107.493 58.9486 107.283C66.0986 107.073 75.3186 106.183 79.4486 105.293C83.5686 104.403 89.4186 102.853 92.4486 101.853C95.4686 100.853 99.9686 99.1326 102.449 98.0326C104.919 96.9326 108.969 94.0426 111.449 91.6026C113.919 89.1626 116.959 85.3126 118.199 83.0326C119.439 80.7526 120.449 77.7626 120.449 76.3926C120.449 75.0126 121.379 71.5326 122.509 68.6426C124.429 63.7526 124.469 63.1126 123.059 59.3926C122.219 57.1926 120.509 54.0627 119.249 52.4527C117.849 50.6527 113.629 48.0026 108.449 45.6526C103.769 43.5426 97.9186 40.8326 95.4486 39.6426C92.9686 38.4526 89.7086 36.6726 88.1986 35.6826C86.6886 34.7026 85.4386 33.3326 85.4186 32.6426C85.3986 31.9526 87.0886 30.5825 89.1686 29.5825C91.8686 28.2925 95.6686 27.7225 102.449 27.5825C108.749 27.4525 113.419 27.9026 116.309 28.8926C120.599 30.3626 120.709 30.3426 122.609 27.8926C123.689 26.4926 124.519 23.8526 124.509 21.8926C124.489 19.9726 124.989 16.8126 125.619 14.8926C126.509 12.1326 126.459 10.6627 125.349 7.95266C124.269 5.29266 122.769 3.99266 118.699 2.20266C115.809 0.932663 112.889 -0.0574105 112.199 0.0025895C111.509 0.0625895 107.349 1.09264 102.949 2.30264ZM70.6686 118.513C69.6986 119.253 68.6186 121.323 68.2586 123.123C67.8986 124.923 67.0486 128.423 66.3586 130.893C65.2186 135.013 65.3186 135.813 67.5386 140.393C69.0586 143.563 70.6786 145.503 71.9486 145.703C73.0486 145.873 74.7286 145.193 75.6786 144.203C76.6286 143.203 78.3786 139.013 79.5586 134.893L81.7086 127.393C78.2686 119.623 76.9986 118.223 75.0686 117.783C73.4986 117.423 71.6986 117.723 70.6686 118.513ZM51.4086 121.853C49.7686 124.993 49.3386 127.623 49.3586 134.603C49.3786 141.853 49.7386 143.873 51.4186 146.143C52.6886 147.863 54.3786 148.893 55.9486 148.893C57.5486 148.893 58.9886 147.993 59.9486 146.393C60.9986 144.643 61.4486 141.063 61.4486 134.393C61.4486 125.283 61.3286 124.753 58.4486 121.393C56.7986 119.473 55.0086 117.893 54.4686 117.893C53.9286 117.893 52.5486 119.673 51.4086 121.853Z" fill="#030203"/>
</svg>
