<svg width="71" height="152" viewBox="0 0 71 152" fill="none" xmlns="http://www.w3.org/2000/svg">
<path d="M25.55 6.03006C25.92 3.55006 26.43 1.19006 26.66 0.780059C26.9 0.370059 27.86 0.0200601 28.8 6.00622e-05C29.73 -0.00993994 32.25 1.23006 34.39 2.75006C36.53 4.28006 39.61 6.88006 41.24 8.53006C43.43 10.7501 44.06 12.1801 43.68 14.0301C43.4 15.4001 42.62 19.9001 41.95 24.0301C41.28 28.1501 40.24 32.1201 39.62 32.8401C39 33.5601 38.05 33.9601 37.5 33.7301C36.95 33.5001 34.03 31.48 31 29.24C27.17 26.41 25.09 24.0201 24.13 21.3501C23.1 18.4701 23.02 16.6701 23.81 14.0301C24.39 12.1001 25.17 8.51006 25.55 6.03006Z" fill="#030203"/>
<path d="M41.5 56.4301C41.5 50.2301 41.93 46.8101 42.86 45.6801C43.61 44.7701 45.19 44.0101 46.36 43.9801C47.91 43.9501 50.2 46.2401 54.63 52.2301C58 56.8001 62.37 63.6801 64.34 67.5301C66.6 71.9401 68.56 77.8601 69.65 83.5301C71.08 91.0301 71.17 93.5301 70.21 98.5301C69.57 101.83 68.59 106.78 68.04 109.53C67.48 112.28 65.56 118.05 63.76 122.36C61.44 127.94 58.78 132.08 54.5 136.78C51.2 140.41 46.14 144.87 43.25 146.7C40.36 148.53 36.09 150.56 33.75 151.22C30.38 152.16 28.05 152.12 22.5 151.04C18.65 150.29 13.25 148.82 10.5 147.76C7.75 146.7 4.26 145.2 2.75 144.43C1.13 143.61 0 142.21 0 141.03C0 139.93 0.56 138.85 1.25 138.63C1.94 138.42 6.32 137.05 11 135.61C15.68 134.16 22.43 131.82 26 130.41C29.57 129 34.3 127.1 36.49 126.19C38.69 125.28 43.64 122.49 47.49 119.99C52.53 116.72 55.41 113.98 57.75 110.24C60.38 106.02 60.99 104.03 60.94 99.7801C60.9 95.9801 60.14 93.2401 58.19 89.8501C56.71 87.2701 52.35 80.7501 41.5 65.5301V56.4301Z" fill="#030203"/>
</svg>
