<svg width="138" height="155" viewBox="0 0 138 155" fill="none" xmlns="http://www.w3.org/2000/svg">
<path fill-rule="evenodd" clip-rule="evenodd" d="M49.6002 3C48.1801 4.65 46.5501 7.91 45.9901 10.25C45.4201 12.59 44.5201 15.51 43.9901 16.75C43.4501 17.99 43.0302 23.61 43.0402 29.25C43.0502 34.89 43.6801 41.98 44.4401 45C45.3501 48.59 46.0102 59.18 46.3602 75.5C46.6502 89.25 47.3302 102.08 47.8602 104C48.174 105.137 48.2353 107.276 48.2996 109.518C48.3438 111.062 48.3895 112.654 48.52 114C48.8469 117.314 46.6715 119.375 45.1569 120.809C44.6791 121.262 44.267 121.652 44.02 122C43.8373 122.257 43.7328 122.475 43.6427 122.662C43.1167 123.757 43.0841 123.825 30.8401 124.79C21.8701 125.5 12.9501 126.14 11.0201 126.2C9.10013 126.26 5.82016 125.9 3.75015 125.4C0.480131 124.62 -0.00985225 124.73 0.000147801 126.25C0.0101479 127.21 2.61012 130.74 5.77014 134.08C8.93015 137.42 14.9001 142.33 19.0201 144.98C23.1502 147.64 27.8701 150.33 29.5201 150.96C31.1701 151.59 35.9001 152.81 40.0201 153.66C45.2102 154.74 50.6001 155.06 57.5201 154.71C63.0202 154.43 71.5701 153.43 76.5201 152.49C81.4702 151.55 89.8001 149.43 95.0201 147.78C100.25 146.14 107 143.45 110.02 141.8C113.05 140.16 117.1 137.67 119.02 136.26C120.95 134.84 123.32 132.75 124.31 131.59C125.29 130.44 127.49 126.8 129.19 123.5C130.89 120.2 133.35 114.24 134.65 110.25C136.53 104.49 137.02 100.84 137.02 92.5C137.02 85.17 136.57 81.1 135.52 79C134.7 77.35 132.33 74.99 130.27 73.75C127.31 71.97 125.16 71.53 120.02 71.65C116.45 71.73 110.6 72.59 107.02 73.56C103.45 74.53 97.6001 76.7699 94.0201 78.5399C90.4501 80.2999 85.4702 83.04 82.9701 84.63C80.4701 86.21 74.7101 90.87 70.1901 95C65.6601 99.12 60.6702 104.52 59.0901 107C58.8863 107.195 58.7009 107.373 58.5302 107.538C57.619 108.415 57.1299 108.886 56.52 109.243C56.711 107.879 56.6069 105.856 56.4958 103.696C56.3683 101.217 56.2315 98.557 56.52 96.5C56.8129 94.4119 56.6263 89.0589 56.3974 82.4907C56.2043 76.9484 55.981 70.5409 55.9901 64.5C56.0201 40.52 56.0201 40.5 58.6602 35.5C60.1102 32.75 62.1401 27.8 63.1801 24.5C64.2101 21.2 65.0502 16.59 65.0402 14.25C65.0202 10.49 64.4402 9.42 60.0201 5C57.2701 2.25 54.3802 0 53.6002 0C52.8202 0 51.0202 1.35 49.6002 3ZM113.52 100.37C109.95 100.19 104.89 100.8 101.02 101.87C97.4501 102.86 92.5001 104.58 90.0201 105.7C87.5501 106.81 81.2502 110.66 76.0201 114.25C70.8001 117.84 65.6201 121.73 64.5201 122.9C63.4201 124.06 62.8801 125.35 63.3201 125.76C63.7601 126.17 70.2801 125.5 77.8201 124.28C85.3502 123.07 95.5701 120.77 100.52 119.17C105.47 117.58 112.22 114.91 115.52 113.23C118.82 111.56 122.87 108.8 124.52 107.11L127.52 104.02C121.32 101.41 116.82 100.53 113.52 100.37Z" fill="#030203"/>
<path d="M76.9705 42.7722C77.5505 40.0222 78.9305 36.7622 80.0605 35.5222C81.1805 34.2822 82.8705 33.2823 83.8105 33.3023C84.7505 33.3223 86.9805 34.2223 88.7705 35.3023C90.5605 36.3823 92.4705 38.1722 93.0205 39.2722C93.5705 40.3722 94.0305 43.4122 94.0405 46.0222C94.0505 48.6322 92.9805 53.6922 91.6505 57.2722C89.4005 63.3422 89.0205 63.7922 85.8805 64.1022C82.9905 64.3822 81.9705 63.8123 78.6205 60.1022C75.0904 56.1722 74.7905 55.4022 75.3305 51.7722C75.6505 49.5722 76.3904 45.5222 76.9705 42.7722Z" fill="#030203"/>
</svg>
